<svg width="24" height="24" viewBox="0 0 24 24" fill="none" xmlns="http://www.w3.org/2000/svg">
<path d="M12.0004 3.27246C9.63025 3.27246 9.33281 3.28282 8.40193 3.32519C7.47287 3.36773 6.8387 3.51482 6.28381 3.73064C5.70983 3.95355 5.22293 4.25173 4.73786 4.73701C4.25242 5.2221 3.95424 5.70901 3.73061 6.28282C3.51426 6.83792 3.36699 7.47228 3.32517 8.40101C3.28354 9.33192 3.27263 9.62955 3.27263 11.9997C3.27263 14.3699 3.28317 14.6665 3.32535 15.5974C3.36808 16.5265 3.51517 17.1606 3.7308 17.7156C3.95388 18.2896 4.25205 18.7765 4.73731 19.2616C5.22221 19.747 5.7091 20.0459 6.28272 20.2688C6.83798 20.4846 7.47232 20.6317 8.4012 20.6743C9.33208 20.7166 9.62935 20.727 11.9993 20.727C14.3696 20.727 14.6661 20.7166 15.597 20.6743C16.526 20.6317 17.1609 20.4846 17.7162 20.2688C18.29 20.0459 18.7762 19.747 19.2611 19.2616C19.7465 18.7765 20.0447 18.2896 20.2683 17.7157C20.4828 17.1606 20.6301 16.5263 20.6737 15.5976C20.7156 14.6666 20.7265 14.3699 20.7265 11.9997C20.7265 9.62955 20.7156 9.3321 20.6737 8.40119C20.6301 7.4721 20.4828 6.83792 20.2683 6.28301C20.0447 5.70901 19.7465 5.2221 19.2611 4.73701C18.7756 4.25155 18.2902 3.95337 17.7156 3.73064C17.1593 3.51482 16.5248 3.36773 15.5957 3.32519C14.6648 3.28282 14.3685 3.27246 11.9976 3.27246H12.0004ZM11.2175 4.84519C11.4498 4.84482 11.7091 4.84519 12.0004 4.84519C14.3305 4.84519 14.6066 4.85355 15.5268 4.89537C16.3777 4.93428 16.8395 5.07646 17.1471 5.19592C17.5544 5.3541 17.8447 5.54319 18.15 5.84864C18.4554 6.1541 18.6445 6.44501 18.8031 6.85228C18.9225 7.15955 19.0649 7.62137 19.1036 8.47228C19.1454 9.39228 19.1545 9.66864 19.1545 11.9977C19.1545 14.3268 19.1454 14.6032 19.1036 15.5232C19.0647 16.3741 18.9225 16.8359 18.8031 17.1432C18.6449 17.5505 18.4554 17.8405 18.15 18.1457C17.8446 18.4512 17.5546 18.6403 17.1471 18.7985C16.8399 18.9185 16.3777 19.0603 15.5268 19.0992C14.6068 19.141 14.3305 19.1501 12.0004 19.1501C9.67007 19.1501 9.3939 19.141 8.47393 19.0992C7.62304 19.0599 7.16124 18.9177 6.85343 18.7983C6.44617 18.6401 6.15527 18.451 5.84982 18.1456C5.54438 17.8401 5.35529 17.5499 5.19675 17.1425C5.0773 16.8352 4.93494 16.3734 4.89622 15.5225C4.8544 14.6025 4.84604 14.3261 4.84604 11.9956C4.84604 9.66501 4.8544 9.3901 4.89622 8.4701C4.93512 7.61919 5.0773 7.15737 5.19675 6.84973C5.35493 6.44246 5.54438 6.15155 5.84982 5.8461C6.15527 5.54064 6.44617 5.35155 6.85343 5.19301C7.16106 5.07301 7.62304 4.93119 8.47393 4.8921C9.27899 4.85573 9.59098 4.84482 11.2175 4.84301V4.84519ZM16.6588 6.29428C16.0806 6.29428 15.6115 6.76282 15.6115 7.34119C15.6115 7.91937 16.0806 8.38846 16.6588 8.38846C17.2369 8.38846 17.706 7.91937 17.706 7.34119C17.706 6.76301 17.2369 6.29392 16.6588 6.29392V6.29428ZM12.0004 7.51791C9.52535 7.51791 7.51868 9.52464 7.51868 11.9997C7.51868 14.4748 9.52535 16.4806 12.0004 16.4806C14.4754 16.4806 16.4813 14.4748 16.4813 11.9997C16.4813 9.52464 14.4752 7.51791 12.0002 7.51791H12.0004ZM12.0004 9.09064C13.6069 9.09064 14.9094 10.393 14.9094 11.9997C14.9094 13.6063 13.6069 14.9088 12.0004 14.9088C10.3937 14.9088 9.09136 13.6063 9.09136 11.9997C9.09136 10.393 10.3937 9.09064 12.0004 9.09064V9.09064Z" fill="black"/>
</svg>
