<svg width="24" height="24" viewBox="0 0 24 24" fill="none" xmlns="http://www.w3.org/2000/svg">
<path d="M18.3255 5.61292L3.87637 11.186C2.89019 11.5816 2.89604 12.1317 3.69661 12.377L7.30027 13.5017L8.67911 17.7292C8.84673 18.1918 8.7641 18.3754 9.24997 18.3754C9.62493 18.3754 9.79127 18.2044 10.0001 18.0004C10.1329 17.8704 10.9214 17.1038 11.8018 16.2478L15.5503 19.0174C16.2401 19.3979 16.7381 19.2008 16.9099 18.3768L19.3705 6.78153C19.6224 5.77154 18.9854 5.31341 18.3255 5.61292ZM7.86582 13.2433L15.9885 8.11869C16.394 7.87277 16.7658 8.00498 16.4605 8.27596L9.50538 14.5512L9.23457 17.4396L7.86582 13.2433V13.2433Z" fill="black"/>
</svg>
