<svg width="24" height="24" viewBox="0 0 24 24" fill="none" xmlns="http://www.w3.org/2000/svg">
<path fill-rule="evenodd" clip-rule="evenodd" d="M18.6614 9.07583C18.6673 9.22573 18.6692 9.37557 18.6692 9.52548C18.6692 14.0702 15.4722 19.3169 9.62597 19.3169C7.83012 19.3169 6.16023 18.7445 4.75327 17.7701C5.00197 17.7974 5.25456 17.8179 5.51102 17.8179C7.00002 17.8179 8.37146 17.2658 9.45931 16.3392C8.06849 16.3187 6.89409 15.3171 6.48905 13.9544C6.68349 13.9953 6.88374 14.0158 7.08852 14.0158C7.37727 14.0158 7.65763 13.9749 7.92636 13.8932C6.47095 13.5797 5.37471 12.1898 5.37471 10.5204C5.37471 10.5 5.37471 10.4931 5.37471 10.4795C5.80365 10.7316 6.2946 10.8882 6.81591 10.9087C5.96191 10.2886 5.40054 9.23253 5.40054 8.04013C5.40054 7.41327 5.55687 6.82045 5.83206 6.30943C7.39923 8.39442 9.74226 9.764 12.3837 9.90708C12.3295 9.65498 12.3017 9.38931 12.3017 9.12357C12.3017 7.22255 13.7248 5.68262 15.4806 5.68262C16.3947 5.68262 17.2202 6.09831 17.7997 6.76606C18.5251 6.61616 19.2047 6.33 19.8197 5.9348C19.5813 6.73882 19.0781 7.41324 18.4205 7.83569C19.0639 7.75392 19.6776 7.57009 20.2467 7.29755C19.8197 7.98573 19.2822 8.59206 18.6614 9.07583Z" fill="black"/>
</svg>
