<svg width="52" height="67" viewBox="0 0 52 67" fill="none" xmlns="http://www.w3.org/2000/svg">
<path d="M19.1273 9.59357C19.2037 9.51259 19.2997 9.46458 19.4054 9.45997C19.5943 9.45173 19.725 9.29557 19.902 9.26187C19.982 9.24684 20.0633 9.2175 20.1418 9.22162C20.3407 9.23205 20.5295 9.21532 20.724 9.14597C20.8469 9.10208 20.9401 9.06329 21.0378 8.95951C21.1238 8.86834 21.3018 8.8664 21.4383 8.82154C21.5344 8.79002 21.6265 8.74153 21.724 8.72164C21.8265 8.70079 21.9395 8.68091 22.0368 8.7037C22.189 8.73934 22.3277 8.72673 22.4751 8.67776C22.5687 8.64672 22.6703 8.64284 22.7683 8.62659C22.9123 8.69012 23.0362 8.61883 23.1613 8.55579L23.164 8.55506C23.2598 8.64357 23.3522 8.5684 23.4455 8.54003L23.5098 8.53591C23.5697 8.58513 23.6298 8.65787 23.687 8.52791C23.7532 8.49493 23.8175 8.44619 23.8943 8.50002C23.8982 8.50269 23.9263 8.46293 23.9477 8.45201C23.9642 8.44377 23.9877 8.45007 24.0076 8.46729C24.1487 8.4137 24.2859 8.46244 24.4256 8.48402C24.4738 8.49129 24.5269 8.47093 24.6091 8.45808C24.6387 8.46389 24.7042 8.49323 24.7653 8.48426C24.8417 8.47287 24.8846 8.47093 24.9345 8.54658C24.9602 8.58537 25.0648 8.56986 25.1336 8.57883L25.1453 8.53591L25.2185 8.62199L25.3984 8.56282C25.4374 8.63605 25.4454 8.72237 25.5802 8.68018C25.6797 8.64914 25.8031 8.67363 25.9081 8.70055C26.1731 8.76844 26.4323 8.85743 26.6971 8.92677C26.859 8.96921 27.0307 8.97842 27.1908 9.0257C27.3122 9.06159 27.4233 9.13191 27.5353 9.19325C27.5486 9.20053 27.5389 9.24878 27.5387 9.23981C27.6296 9.24393 27.7118 9.2255 27.7693 9.25484C27.8888 9.31594 27.8835 9.32637 28.0219 9.30164L28.0064 9.37317C28.1005 9.38941 28.2319 9.37195 28.2816 9.42821C28.4308 9.59697 28.6502 9.59479 28.8253 9.69226C28.9201 9.74488 29.0049 9.81519 29.1138 9.89133C29.2377 9.85763 29.3643 9.90345 29.4785 10.0063C29.5178 10.0417 29.5793 10.0509 29.6247 10.0812C29.6421 10.0928 29.6431 10.1297 29.6448 10.1353C29.6797 10.1624 29.71 10.1791 29.7311 10.2041C29.7549 10.232 29.7631 10.2783 29.7913 10.297C30.0044 10.4386 30.2204 10.5751 30.4358 10.7133L30.435 10.7106L30.4382 10.7652C30.6019 10.7252 30.6443 10.8976 30.759 10.9483C30.8557 10.9909 30.9331 11.0741 31.0228 11.134C31.096 11.183 31.1571 11.2281 31.073 11.2875C31.1506 11.3457 31.2197 11.4153 31.3033 11.4543C31.3676 11.4841 31.4566 11.497 31.5228 11.4761C31.5645 11.4628 31.6488 11.4727 31.6658 11.3658C31.6765 11.2986 31.7883 11.247 31.8501 11.184C31.9226 11.1098 31.9844 11.0242 32.0615 10.9563C32.1066 10.9165 32.1726 10.9012 32.2293 10.875L32.2274 10.8753C32.2967 10.9347 32.2994 10.8726 32.3217 10.8265C32.3399 10.789 32.3702 10.7511 32.4046 10.7286C32.6069 10.5952 32.812 10.4662 33.0162 10.3358L33.0137 10.3363L33.0317 10.311L33.0322 10.3125C33.1682 10.2017 33.2977 10.0872 33.4713 10.0281C33.5797 9.99123 33.6669 9.89133 33.7705 9.83217C33.9048 9.75555 34.0469 9.69396 34.1824 9.61952C34.2021 9.60885 34.2045 9.56424 34.2159 9.53199L34.5762 9.42506L34.6138 9.41608C34.6198 9.40903 34.6266 9.40261 34.6339 9.39693C34.6519 9.40008 34.6756 9.41245 34.687 9.40493C34.8298 9.30988 35.0209 9.30915 35.1368 9.16197L35.3369 9.10936C35.3626 9.1096 35.3909 9.11736 35.4135 9.10839C35.5168 9.06717 35.6205 9.02619 35.7195 8.97527C35.767 8.95102 35.8046 8.90544 35.8465 8.86955C35.9908 8.9292 36.2185 8.86543 36.2747 8.74928C36.4983 8.66151 36.7228 8.58828 36.9658 8.58416C37.0519 8.58271 37.1377 8.52403 37.2255 8.49808C37.3276 8.46802 37.4345 8.45419 37.5339 8.4171C37.8244 8.3092 38.1272 8.3412 38.4235 8.30314C38.6333 8.27622 38.8534 8.31235 39.0549 8.25901C39.2334 8.21197 39.3731 8.30992 39.5367 8.29489C39.7379 8.27833 39.94 8.27436 40.1417 8.28301C40.2287 8.28592 40.3282 8.27477 40.3994 8.34824C40.5122 8.24033 40.646 8.36278 40.7634 8.30314C40.7796 8.29489 40.7983 8.29101 40.8206 8.28325L40.8226 8.3138C41.0439 8.36206 41.2554 8.40716 41.4663 8.45468C41.5522 8.47408 41.637 8.49857 41.7199 8.52548C42.3091 8.62514 42.8891 8.75922 43.4611 9.01649L43.5504 8.98545L43.5385 9.01309C43.6529 9.06765 43.77 9.11736 43.8811 9.17846C44.0023 9.24514 44.1165 9.32467 44.2363 9.39377C44.2814 9.41972 44.3338 9.43306 44.3835 9.45076C44.4439 9.47209 44.5076 9.48592 44.5649 9.51332C44.722 9.58824 44.8806 9.66147 45.0307 9.74876C45.2372 9.86902 45.4492 9.98226 45.6058 10.1741C45.6681 10.2504 45.7525 10.3106 45.8335 10.369C45.9991 10.4891 46.1672 10.6056 46.3378 10.7184C46.46 10.7991 46.5953 10.8619 46.7105 10.9509C46.8102 11.0278 46.8902 11.1304 46.9782 11.222C47.0005 11.2453 47.0189 11.2722 47.0422 11.2943C47.1681 11.4126 47.2973 11.5275 47.4207 11.6485C47.4828 11.7094 47.5381 11.778 47.5909 11.8476C47.789 12.1078 47.998 12.3556 48.2873 12.5297L48.2492 12.5956C48.4139 12.6584 48.4163 12.8223 48.4743 12.9487L48.6178 12.9836L48.5882 13.0129C48.6612 13.0997 48.7347 13.186 48.8064 13.2741C48.8249 13.2966 48.8474 13.3228 48.8503 13.35C48.8736 13.5602 49.0273 13.6938 49.1183 13.8635C49.183 13.9843 49.3474 14.0049 49.3561 14.1567C49.3569 14.1693 49.3372 14.1838 49.3268 14.1976L49.3188 14.1741L49.3052 14.2018C49.3583 14.282 49.4165 14.3594 49.4635 14.4433C49.5314 14.5647 49.5879 14.693 49.6558 14.8147C49.6895 14.8751 49.7523 14.9207 49.7763 14.9835C49.8171 15.0904 49.8241 15.2121 49.8704 15.3154C49.9162 15.4173 49.9126 15.5516 50.0309 15.6125L50.0307 15.611C50.0304 15.6362 50.0227 15.6646 50.0312 15.6862C50.0957 15.8484 50.1779 16.0048 50.2247 16.1723C50.2552 16.2817 50.277 16.3763 50.3583 16.4684C50.4269 16.5465 50.4359 16.684 50.4572 16.7982C50.4797 16.9189 50.4737 17.0467 50.5016 17.1655C50.5418 17.3381 50.6049 17.5047 50.6517 17.6759C50.7067 17.8772 50.7533 18.0808 50.8056 18.2828C50.8413 18.4203 50.881 18.5566 50.9193 18.6933C50.923 18.7064 50.9373 18.7258 50.9332 18.7304C50.8335 18.8427 50.9477 18.9591 50.916 19.0808C50.8919 19.1729 50.9601 19.2845 50.9783 19.3892C50.9972 19.4991 51.0229 19.612 51.0149 19.7221C50.9863 20.1169 50.9991 20.5077 51.0323 20.8998C51.0447 21.0463 51.0115 21.2007 50.9821 21.3484C50.9681 21.4194 51.067 21.5242 50.9244 21.5635L50.9273 21.5768C50.948 21.6888 50.9693 21.8006 50.9884 21.9126C50.9914 21.9347 50.9901 21.957 50.9846 21.9786C50.9472 22.1478 50.9082 22.3168 50.8713 22.4861C50.8675 22.5038 50.8677 22.5283 50.8772 22.5414C50.9724 22.6723 50.8859 22.8006 50.8384 22.9099C50.7278 23.1645 50.6873 23.4252 50.6684 23.6955C50.6507 23.9462 50.5838 24.1846 50.4351 24.4002C50.3975 24.4547 50.4206 24.5473 50.4017 24.6191C50.3811 24.6969 50.3447 24.7711 50.3134 24.8461C50.2555 24.985 50.1796 25.1196 50.1415 25.2634C50.0789 25.4995 49.9987 25.7199 49.8549 25.9248C49.7868 26.0221 49.7974 26.1704 49.746 26.2842C49.657 26.4798 49.5436 26.6648 49.4475 26.8579C49.3949 26.9636 49.3661 27.0809 49.3103 27.1845C49.2739 27.2519 49.2133 27.3096 49.1551 27.362C49.0142 27.488 48.9527 27.66 48.8702 27.821C48.8159 27.9274 48.7526 28.0297 48.6927 28.1333C48.6835 28.1493 48.659 28.1638 48.6597 28.1776C48.6658 28.311 48.5855 28.3255 48.5257 28.3151L48.3009 28.5612C48.2774 28.5869 48.2395 28.6083 48.2315 28.6376C48.1639 28.883 47.9675 29.0314 47.799 29.1919C47.4949 29.4816 47.2551 29.8221 46.9944 30.1465C46.9695 30.1751 46.9411 30.2005 46.9098 30.2222C46.7401 30.3487 46.5738 30.4809 46.3977 30.5975C46.2311 30.7081 46.0524 30.7992 45.8827 30.9047C45.8362 30.9336 45.8039 30.9855 45.7622 31.0233C45.6577 31.1186 45.5515 31.2122 45.4458 31.3063L45.4475 31.3058C45.3912 31.3421 45.3367 31.3821 45.278 31.4139C45.1837 31.4651 45.0855 31.5085 44.9914 31.5596C44.9599 31.5769 44.9354 31.6079 44.9077 31.6326C44.7501 31.6995 44.5911 31.7638 44.4356 31.8361C44.407 31.8494 44.3927 31.8955 44.3716 31.9265L44.3045 32.0225C44.0891 32.0814 43.8881 32.1423 43.7121 32.2735L43.7143 32.273L43.4781 32.4061C43.4999 32.4194 43.4934 32.4124 43.4859 32.4114C43.4522 32.4071 43.392 32.394 43.3884 32.4027C43.3186 32.5741 43.0712 32.4003 43.0225 32.6042C42.8731 32.5472 42.7737 32.5712 42.7053 32.6939L42.6755 32.6447C42.5948 32.7247 42.4265 32.5969 42.3947 32.7827C42.3116 32.7022 42.1736 32.7223 42.072 32.8139C41.8441 32.6726 41.7321 32.9243 41.5475 32.9631L41.4729 32.9025C41.4224 33.0133 41.3647 33.045 41.2454 32.9914C41.2124 32.9766 41.0456 32.9141 40.9838 33.0581C40.9794 33.0681 40.8982 33.0387 40.8531 33.0419C40.7949 33.0458 40.7374 33.0642 40.6797 33.0715C40.3999 33.1005 40.1225 33.1534 39.8119 33.2174L39.7891 33.1721C39.7368 33.1777 39.6449 33.2041 39.5593 33.1927C39.4169 33.1735 39.2722 33.1692 39.133 33.11C39.0828 33.0887 38.9572 33.1229 38.8951 33.1481C38.7598 33.2029 38.6536 33.1752 38.5307 33.1471C38.4437 33.1272 38.3471 33.1493 38.256 33.1413C38.208 33.1372 38.1626 33.1086 38.1071 33.0875L37.9412 33.1764L37.9461 33.1243L37.7596 33.038C37.7104 32.9597 37.661 33.1915 37.6311 33.0048C37.6292 32.9922 37.539 32.9956 37.4898 32.9931C37.328 32.9856 37.1653 33.0179 37.0145 32.909C36.9537 32.8651 36.8329 32.9042 36.7335 32.9056C36.7017 32.8115 36.5841 32.7909 36.4125 32.8663C36.4423 32.7516 36.3652 32.7625 36.2929 32.7548C36.2418 32.7492 36.193 32.7242 36.1445 32.7046C36.1137 32.6922 36.0873 32.6665 36.0558 32.6595C35.9627 32.6386 35.8502 32.6796 35.7857 32.5681C35.7745 32.5489 35.7209 32.5375 35.6969 32.5477C35.5973 32.5904 35.527 32.5693 35.4651 32.4832C35.4523 32.4653 35.3946 32.481 35.3575 32.4813L35.3592 32.481C35.2304 32.3874 35.05 32.3969 34.9351 32.2689C34.9099 32.2407 34.8306 32.2701 34.7894 32.2483C34.6048 32.151 34.4249 32.0451 34.2433 31.942L34.2368 31.919L34.2249 31.9459L34.1917 32.0051C34.076 31.7888 34.076 31.7888 34.0978 31.7386C33.9298 31.7677 33.7824 31.7531 33.6893 31.5832C33.6757 31.5582 33.6068 31.5657 33.5637 31.5567C33.5355 31.5507 33.4926 31.5509 33.4829 31.533C33.4427 31.46 33.3922 31.4195 33.3035 31.4328C33.2904 31.4348 33.2732 31.402 33.2577 31.3855C33.2378 31.3644 33.2172 31.3249 33.1973 31.3259C33.0312 31.3329 32.9742 31.1756 32.8573 31.1103C32.8273 31.0934 32.7923 31.0851 32.7223 31.0592C32.6837 30.9818 32.5768 30.9236 32.465 30.8533C32.2926 30.7449 32.1529 30.5844 32.0029 30.4418C31.9076 30.3514 31.8273 30.2433 31.7245 30.1628C31.6615 30.1135 31.5691 30.1019 31.4874 30.0723C31.4517 30.2098 31.4023 30.2668 31.2783 30.3051C31.1549 30.3432 31.0558 30.4702 30.9462 30.5582C30.8463 30.6096 30.7408 30.6523 30.6477 30.7146C30.4947 30.8172 30.348 30.9302 30.2018 31.0429C30.0849 31.1329 29.9372 31.1819 29.8509 31.3128C29.7964 31.4896 29.6291 31.5245 29.495 31.5975C29.4642 31.6142 29.4125 31.5902 29.4077 31.5895C28.9693 31.758 28.6458 32.1011 28.197 32.1862L27.6871 32.3913L27.6311 32.4233C27.5482 32.4105 27.4541 32.329 27.3959 32.4689C27.3653 32.4798 27.3333 32.4881 27.3042 32.5021C27.2099 32.5475 27.1284 32.6076 27.0067 32.5899C26.9347 32.5795 26.8491 32.6561 26.7679 32.6888C26.6864 32.7216 26.6035 32.7499 26.5198 32.7761C26.499 32.7827 26.4672 32.7628 26.4519 32.773C26.33 32.8537 26.1973 32.7805 26.0717 32.8156C26.0005 32.8355 25.9236 32.8316 25.8516 32.8493C25.7282 32.8794 25.5984 32.9604 25.4857 32.9427C25.3096 32.9148 25.1489 33.0824 24.9741 32.9747C24.9505 32.9604 24.889 33.0074 24.8395 33.0283C24.8293 33.0114 24.8191 32.9945 24.8089 32.9776C24.702 32.9939 24.6096 33.0116 24.5165 33.0213C24.3548 33.0382 24.1926 33.0579 24.0306 33.0625C23.8577 33.0673 23.6851 33.0538 23.5122 33.0542C23.4792 33.0542 23.4458 33.0826 23.4123 33.0979L23.4138 33.0976C23.2942 32.9735 23.1293 32.9626 22.9732 32.942C22.9271 32.9359 22.8721 33.0133 22.8192 33.0181C22.7363 33.0256 22.649 33.0128 22.568 32.9927C22.4271 32.9577 22.2897 32.9109 22.151 32.869C21.9601 32.811 21.7717 32.7446 21.578 32.698C21.4754 32.6733 21.3639 32.6825 21.2587 32.6767L21.2958 32.6127C21.1408 32.6154 20.9922 32.6272 20.8462 32.6156C20.7892 32.611 20.7381 32.5535 20.6515 32.4999C20.5894 32.5288 20.4939 32.5249 20.4296 32.4127C20.4241 32.403 20.4095 32.3896 20.4018 32.3913C20.2446 32.4255 20.1852 32.3079 20.1101 32.2046C20.0029 32.2199 19.9083 32.2424 19.8031 32.1406C19.7335 32.0734 19.5793 32.0087 19.4704 32.0814C19.3999 32.0376 19.3422 32.0012 19.284 31.9653C19.1465 31.8799 19.0182 31.7718 18.8691 31.7158C18.694 31.6501 18.5655 31.5143 18.3999 31.4483C18.3068 31.4112 18.2161 31.2827 18.0796 31.3858C18.0765 31.3775 18.0755 31.3635 18.068 31.3567C17.9433 31.2413 17.8202 31.1242 17.6916 31.0136C17.6444 30.9729 17.5663 30.9607 17.5328 30.9132C17.4397 30.7813 17.2913 30.7435 17.1652 30.6669C17.1007 30.6276 17.051 30.5645 16.9919 30.516C16.9252 30.4591 16.8549 30.4065 16.7814 30.3587C16.7579 30.3441 16.715 30.3606 16.6774 30.363C16.6684 30.341 16.6628 30.3002 16.6403 30.2762C16.328 29.9448 16.0596 29.5624 15.6702 29.3878C15.5591 29.276 15.4721 29.2011 15.4003 29.1131C15.3118 29.0045 15.2381 28.8835 15.1547 28.7705C15.1132 28.7142 15.0523 28.6703 15.0203 28.6097C14.9672 28.5086 14.933 28.3973 14.8855 28.293C14.8712 28.2618 14.8433 28.2273 14.813 28.215C14.7189 28.1767 14.6857 28.108 14.6525 28.0123C14.6171 27.9102 14.5303 27.8248 14.4563 27.7409C14.3526 27.6231 14.2396 27.5135 14.1654 27.3877C14.1559 27.343 14.1588 27.2899 14.1351 27.2558C14.0604 27.1479 13.9755 27.047 13.9096 26.9393C13.8831 26.87 13.855 26.8014 13.831 26.7313C13.7602 26.5252 13.679 26.3295 13.5534 26.1462C13.4338 25.9719 13.3703 25.7573 13.2835 25.5599C13.2765 25.5439 13.2806 25.509 13.275 25.508C13.0813 25.4775 13.1715 25.2692 13.0781 25.1758C13.0689 25.1666 13.0856 25.1317 13.0883 25.1087C13.0961 25.0396 13.13 24.9734 13.0211 24.935C12.9622 24.9144 12.9319 24.8162 12.8883 24.7525C12.9431 24.712 12.937 24.5153 12.8723 24.4421C12.8238 24.3871 12.7872 24.3211 12.7452 24.26C12.8601 24.1919 12.745 24.1131 12.7598 24.0389C12.7668 24.0032 12.7464 23.9627 12.7384 23.9247H12.7367L12.7811 23.9375L12.7539 23.9002L12.7544 23.9014C12.7716 23.7009 12.7438 23.512 12.6509 23.3328C12.6063 23.2465 12.5975 23.1403 12.5529 23.0539C12.5066 22.9647 12.5243 22.9012 12.5861 22.8306C12.5956 22.8197 12.5813 22.7688 12.5638 22.7562C12.4467 22.6728 12.4057 22.5714 12.422 22.417C12.4421 22.2244 12.4576 22.0169 12.4065 21.8377C12.3434 21.6171 12.4244 21.3957 12.3677 21.1813C12.356 21.1377 12.3847 21.0819 12.3694 21.0349C12.3609 20.9789 12.3551 20.9221 12.3434 20.8666C12.3046 20.684 12.2986 20.4968 12.2777 20.3116C12.2697 20.2405 12.2515 20.1712 12.2394 20.1086L12.3451 20.0475C12.2176 19.929 12.2966 19.7995 12.3126 19.677C12.3306 19.5405 12.3485 19.4035 12.3747 19.268C12.3948 19.1632 12.438 19.0619 12.4533 18.9569C12.4863 18.7278 12.4632 18.4916 12.5781 18.2729C12.5951 18.2404 12.5524 18.1771 12.5374 18.1281L12.5377 18.1296C12.6274 17.9688 12.6274 17.9688 12.5803 17.8861C12.6264 17.793 12.6846 17.7142 12.7042 17.6277C12.7496 17.4276 12.7617 17.2201 12.8158 17.0227C12.8546 16.8808 12.8221 16.7058 12.9782 16.6049C12.9889 16.5964 12.9962 16.5843 12.9988 16.571C13.0207 16.4512 13.0413 16.3314 13.0621 16.2116L13.0624 16.2133C13.1155 16.1042 13.1788 15.9985 13.2195 15.885C13.2944 15.6774 13.3558 15.465 13.4244 15.2553C13.4324 15.2343 13.4451 15.2154 13.4615 15.2C13.6701 14.993 13.8313 14.7431 13.9341 14.4678C13.9903 14.3203 14.0424 14.1676 14.1261 14.0357C14.1855 13.9418 14.2946 13.8793 14.4032 13.7837C14.427 13.7452 14.4663 13.6705 14.516 13.6033C14.5536 13.5524 14.4692 13.5051 14.5434 13.4382C14.6098 13.3783 14.5994 13.2503 14.7039 13.1846C14.766 13.1456 14.7941 13.0532 14.8441 12.9899C14.8969 12.9227 14.9585 12.8626 15.0148 12.7981C15.1147 12.6834 15.2133 12.5677 15.3125 12.4526L15.3188 12.4754L15.3348 12.4484C15.4546 12.2115 15.6588 12.069 15.8748 11.9317C15.9417 11.8891 15.9931 11.7911 16.015 11.7094C16.0571 11.5518 16.1842 11.4851 16.2952 11.4019C16.4686 11.2722 16.649 11.1519 16.8248 11.0256C16.836 11.0176 16.834 10.9909 16.8391 10.9732C16.8626 10.894 16.8908 10.8455 16.9921 10.8166C17.1257 10.7788 17.2433 10.6767 17.3675 10.6013C17.4194 10.5698 17.4712 10.538 17.5207 10.5026C17.7392 10.3474 17.9227 10.1418 18.2054 10.0841C18.3247 10.0598 18.4351 9.96237 18.5413 9.88624C18.7222 9.75676 18.9033 9.63237 19.1259 9.59357C19.1247 9.5977 19.1225 9.60182 19.123 9.6057C19.1232 9.60788 19.1276 9.60982 19.13 9.61176C19.1292 9.60568 19.1283 9.59962 19.1273 9.59357ZM14.7403 28.1066L14.7488 28.1304L14.7633 28.102L14.7563 28.0622C14.7439 28.0498 14.7314 28.0374 14.7189 28.0251L14.7332 28.0668L14.7403 28.1066ZM28.7833 26.0732L28.8029 26.055L28.7809 26.0589L28.7426 26.0718L28.5134 25.5325L28.5692 25.5262L28.5653 25.5027L28.511 25.518C28.4305 25.3417 28.3442 25.1681 28.2717 24.9884C28.2067 24.8274 28.1289 24.6637 28.1085 24.4935C28.0869 24.3136 28.0777 24.1356 27.9992 23.9715C28.0011 23.9346 28.0064 23.8973 28.0045 23.8609C27.9993 23.769 27.9923 23.6773 27.9834 23.5857C27.9785 23.534 27.9688 23.4831 27.9613 23.432C27.9613 23.4004 27.941 23.3701 27.9296 23.3369C27.8823 23.2002 27.8377 23.0622 27.7921 22.9247C27.6985 22.8711 27.7576 22.852 27.8088 22.8345C27.7741 22.7783 27.7067 22.7203 27.7089 22.6626C27.7162 22.4592 27.6883 22.2681 27.6202 22.1195C27.6512 22.0331 27.6915 21.9737 27.6898 21.9165C27.6835 21.7126 27.6631 21.5096 27.6478 21.3064C27.6497 21.2638 27.667 21.2129 27.6505 21.1799C27.611 21.0996 27.595 21.0334 27.6944 20.9866L27.6119 20.7839V20.7825C27.6306 20.6894 27.6553 20.5965 27.665 20.5027C27.6701 20.4527 27.649 20.4008 27.6398 20.3499C27.6301 20.146 27.5773 19.9319 27.6255 19.7413C27.658 19.6135 27.6478 19.5012 27.6582 19.3812C27.6694 19.2546 27.7116 19.1303 27.738 19.0044C27.764 18.88 27.8345 18.7367 27.7984 18.6356C27.7613 18.5321 27.764 18.4824 27.8365 18.4167L27.8939 18.4142L27.8893 18.391L27.8357 18.4118L27.7596 18.3316C27.9099 18.3388 27.9145 18.252 27.9177 18.1555C27.9194 18.1024 27.9473 18.05 27.9528 17.9965C27.9604 17.923 28.0486 17.8742 28.0072 17.7821C27.9853 17.7336 27.9817 17.6468 28.011 17.6085C28.1126 17.4754 28.1158 17.3265 28.1255 17.1759L28.124 17.1762C28.2523 17.1616 28.2111 17.0394 28.2341 16.9747C28.2865 16.8268 28.4135 16.6825 28.3221 16.5077C28.3151 16.4943 28.3299 16.4623 28.3427 16.4454C28.3876 16.3855 28.4363 16.328 28.4834 16.2698C28.5644 16.1631 28.6327 16.0516 28.6325 15.9124C28.633 15.894 28.6403 15.8714 28.6327 15.8576C28.5622 15.7269 28.5532 15.6115 28.6875 15.5009C28.7387 15.4587 28.777 15.3853 28.7949 15.3196C28.8301 15.1903 28.867 15.0817 28.9914 15.1273C29.0115 15.049 29.0241 14.9777 29.0486 14.9105C29.0757 14.8361 29.114 14.7655 29.1475 14.693L29.1477 14.6947L29.2011 14.5327L29.2942 14.574L29.4346 14.3734L29.3398 14.2869C29.3585 14.2483 29.3703 14.2178 29.3871 14.1899C29.4256 14.1259 29.4557 14.0505 29.5095 14.0034C29.5583 13.9607 29.5847 13.9726 29.5767 13.8793C29.5696 13.7995 29.7333 13.8034 29.6504 13.7049C29.648 13.7023 29.6528 13.6931 29.654 13.6884L29.719 13.6875C29.7333 13.6446 29.7384 13.5997 29.7612 13.5672C29.831 13.4666 29.9038 13.3674 29.9826 13.2738C30.0214 13.228 30.0771 13.197 30.123 13.1565C30.1683 13.1162 30.2195 13.0784 30.2527 13.0289C30.3482 12.8868 30.436 12.7397 30.5308 12.5881C30.2331 12.3893 29.9843 12.0971 29.6349 11.9259L29.6557 11.826C29.5946 11.8297 29.543 11.8394 29.4942 11.8328C29.4642 11.8287 29.4225 11.8056 29.4135 11.7804C29.3677 11.6526 29.2966 11.6078 29.1904 11.5397C29.0638 11.4584 28.921 11.4102 28.7983 11.3212C28.6373 11.2053 28.4685 11.1007 28.293 11.0082C28.1815 10.949 28.0396 10.9601 27.9337 10.8738C27.8985 10.845 27.8377 10.8501 27.795 10.8275C27.673 10.7628 27.5603 10.6772 27.4327 10.6277C27.3239 10.5858 27.256 10.4253 27.0993 10.5092C27.0882 10.5152 27.0511 10.4999 27.0501 10.491C27.0368 10.3743 26.9577 10.4291 26.8983 10.4333C26.7887 10.2873 26.1105 10.0914 25.9944 10.1675L25.9427 10.062C25.8164 10.201 25.8152 10.064 25.7982 10.0191C25.7107 10.0305 25.6394 10.0482 25.5691 10.047C25.4692 10.0453 25.37 10.0295 25.2614 10.0191L25.2565 9.96819L24.6319 9.93255L24.6542 9.85593L24.6601 9.92358L24.4268 9.84914L24.4321 9.91994L24.403 9.84429C24.2168 9.85835 24.0393 9.94734 23.8645 9.84089C23.8458 9.8295 23.8131 9.84114 23.7869 9.84114C23.5794 9.84114 23.3716 9.84502 23.1643 9.83968C23.043 9.83653 22.9264 9.77373 22.8001 9.85375C22.7448 9.88866 22.6662 9.88842 22.5976 9.89642C22.4473 9.91388 22.2892 9.90127 22.1481 9.94758C22.0089 9.99317 21.8789 10.0373 21.7341 10.0131C21.7138 10.0097 21.6903 10.0218 21.668 10.0266C21.5627 10.0494 21.4563 10.0926 21.3525 10.0902C21.1629 10.0858 20.9689 9.99971 20.7997 10.1699C20.7912 10.1784 20.772 10.1743 20.7592 10.1799C20.6748 10.2165 20.5909 10.2548 20.5063 10.2909C20.4287 10.3239 20.3501 10.3549 20.2553 10.3937L20.2357 10.4592L20.0679 10.5649C19.9515 10.4386 19.9134 10.7502 19.8198 10.6643C19.7725 10.6954 19.7476 10.7235 19.7192 10.7281C19.6537 10.7388 19.5873 10.7494 19.5245 10.7618C19.292 10.8079 19.1635 11.014 18.9591 11.0976C18.8293 11.1507 18.7209 11.2594 18.5922 11.3163C18.4649 11.3726 18.412 11.5246 18.2554 11.5462C18.1698 11.5578 18.1526 11.713 18.0362 11.7213C18.0265 11.722 18.0204 11.753 18.0078 11.7647C17.9387 11.8289 17.8987 11.9259 17.7952 11.9531C17.7777 11.9577 17.7695 11.9974 17.7547 12.0195C17.7416 12.0389 17.7181 12.0743 17.7118 12.0719C17.5959 12.0275 17.552 12.1456 17.4727 12.1791C17.2804 12.26 17.1611 12.4155 17.0331 12.5677C16.955 12.6606 16.8624 12.7423 16.7703 12.8216C16.7089 12.8742 16.6039 12.9004 16.5768 12.9627C16.5232 13.0859 16.3648 13.1196 16.3462 13.2653C16.3433 13.2874 16.2894 13.3041 16.2582 13.324L16.2783 13.4106C16.1922 13.4714 16.0879 13.509 16.045 13.582C15.9097 13.8126 15.8185 14.0723 15.5603 14.2071C15.5385 14.2185 15.5269 14.2527 15.513 14.2777C15.44 14.4105 15.3668 14.5434 15.296 14.6772C15.231 14.8002 15.1372 14.9197 15.1137 15.0497C15.0843 15.2114 15.0429 15.3353 14.8877 15.3816C14.8938 15.4374 14.9209 15.5017 14.9001 15.5298C14.8542 15.5906 14.7827 15.6314 14.7245 15.6835C14.7034 15.7022 14.6738 15.7327 14.6763 15.7536C14.6983 15.9303 14.6467 16.085 14.5465 16.232C14.4934 16.3098 14.4403 16.3925 14.4108 16.4803C14.3665 16.6155 14.3326 16.7538 14.3094 16.8942C14.273 17.1059 14.098 17.2606 14.0999 17.5001C14.1014 17.6827 13.9855 17.8692 13.9268 18.0551C13.9183 18.0818 13.937 18.1167 13.9445 18.1473C13.9602 18.213 13.9983 18.3325 13.9896 18.3362C13.8409 18.4007 13.951 18.5665 13.8526 18.6511C13.8036 18.6931 13.7573 18.7661 13.7522 18.8269C13.7403 18.9743 13.7561 19.123 13.7554 19.2714C13.7551 19.3402 13.7432 19.4093 13.7345 19.4782C13.7153 19.631 13.6889 19.7832 13.6765 19.9365C13.6678 20.0456 13.7107 20.1697 13.6705 20.2621C13.6033 20.4163 13.6009 20.5628 13.6169 20.7172C13.6198 20.8266 13.6298 20.9362 13.6237 21.0453C13.6154 21.193 13.6664 21.321 13.7212 21.4495L13.6872 21.6374C13.6967 21.732 13.7008 21.8275 13.7168 21.9206C13.7372 22.0392 13.7672 22.1558 13.7929 22.2734C13.799 22.3173 13.7995 22.3656 13.8206 22.401C13.8761 22.4941 13.9081 22.5797 13.7961 22.659C13.768 22.7121 13.7512 22.7504 13.7934 22.818C13.8417 22.8954 13.8424 23.0038 13.8637 23.0988L13.8295 23.1104L13.9319 23.182L14.0429 23.5711C14.031 23.5745 14.0192 23.5777 14.0388 23.5724C14.0247 23.5879 14.0335 23.5782 14.0422 23.5687C14.08 23.6533 14.1479 23.7372 14.1472 23.8228C14.1465 23.9011 14.1166 23.9276 14.1746 23.9581C14.1894 23.9661 14.2083 23.9666 14.2277 23.9712C14.1726 24.0934 14.2813 24.5098 14.3361 24.543C14.3613 24.6293 14.3729 24.6853 14.3938 24.7372C14.4277 24.8221 14.515 24.9186 14.4937 24.9845C14.4597 25.0897 14.5119 25.131 14.5524 25.1945C14.5863 25.2478 14.6106 25.3077 14.6433 25.362C14.6923 25.4433 14.7449 25.5223 14.7965 25.6033L14.7378 25.6967C14.8487 25.7 14.8819 25.7607 14.8969 25.8467C14.9059 25.8977 14.9243 25.9493 14.95 25.9937C15.0031 26.0849 15.1011 26.1654 15.113 26.2606C15.1324 26.4163 15.2131 26.5046 15.3314 26.5807L15.2638 26.6307C15.3406 26.7053 15.4192 26.7458 15.4422 26.8775C15.4643 27.0043 15.6064 27.1049 15.6915 27.2201C15.7548 27.3057 15.9003 27.3406 15.8438 27.5072L15.9441 27.4754C15.982 27.5404 16.0118 27.5962 16.0455 27.6495C16.0848 27.7114 16.1328 27.7681 16.168 27.8324C16.2584 27.998 16.3816 28.1386 16.4938 28.2875C16.5511 28.3631 16.5923 28.4541 16.6592 28.5188C16.7218 28.5789 16.8112 28.6097 16.8832 28.6614C16.9058 28.6776 16.9094 28.7198 16.9245 28.7576L17.0103 28.7353L17.0731 28.8583L17.1536 28.8512L17.649 29.4121C17.7937 29.3088 17.8345 29.48 17.8883 29.5432C17.9492 29.6148 18.1608 29.5425 18.0786 29.7348C18.155 29.7571 18.2314 29.7675 18.2944 29.8017C18.3417 29.8274 18.3681 29.888 18.4101 29.9261C18.4671 29.9782 18.5267 30.0292 18.5912 30.0711C18.6741 30.1249 18.7617 30.1727 18.8504 30.2168C18.913 30.2479 18.9848 30.2619 19.0451 30.2959C19.1191 30.3373 19.1855 30.3914 19.2275 30.4207L19.3894 30.5527C19.4615 30.4564 19.4699 30.5864 19.4835 30.5859L19.6453 30.5328C19.7161 30.6431 19.7541 30.7784 19.8397 30.8213C20.041 30.9227 20.265 30.9799 20.4801 31.0551L20.4852 31.0764L20.4958 31.0519C20.5242 31.0541 20.5688 31.0451 20.5785 31.0601C20.6336 31.1443 20.6959 31.1503 20.771 31.105C20.8457 31.1392 20.9752 31.1302 20.9924 31.1717C21.0613 31.3366 21.1917 31.2548 21.2996 31.281C21.3125 31.3906 21.3629 31.3969 21.4478 31.3007C21.4948 31.4416 21.5838 31.4905 21.7293 31.4675C21.8011 31.4561 21.8791 31.4939 21.9543 31.5097C21.9529 31.522 21.9514 31.5343 21.9497 31.5465L22.1192 31.467C22.1531 31.5148 22.1745 31.5805 22.2096 31.5878C22.3212 31.6108 22.4378 31.6154 22.5527 31.6207C22.7375 31.6295 22.9329 31.6006 23.1041 31.6508C23.2094 31.6816 23.2685 31.6673 23.3396 31.6188L23.3476 31.6932C23.48 31.7202 23.5915 31.7505 23.7055 31.7643C23.8204 31.7781 23.9348 31.8523 24.0553 31.7691C24.0682 31.7604 24.091 31.766 24.1092 31.766C24.218 31.7667 24.3284 31.7803 24.4355 31.7653C24.559 31.748 24.7139 31.6443 24.7937 31.6879C24.9244 31.7597 25.0366 31.7318 25.1525 31.7105C25.4835 31.6494 25.8125 31.5732 26.1418 31.5017C26.2291 31.4828 26.3142 31.4522 26.402 31.4372C26.5996 31.4014 26.7992 31.3776 26.9997 31.3657L26.9999 31.3535C26.9951 31.355 26.9897 31.3557 26.9856 31.3584C26.9846 31.3591 26.9873 31.3657 26.988 31.3695C26.9919 31.3683 26.9956 31.3669 26.99 31.3465C27.0264 31.3312 27.0618 31.3135 27.0991 31.3012C27.1597 31.281 27.2283 31.2764 27.2817 31.2444C27.4735 31.1288 27.6335 30.9573 27.86 30.9018C27.8791 30.8972 27.8939 30.8713 27.9123 30.8536L27.9671 30.9004C28.2273 30.7612 28.4708 30.6278 28.7171 30.5005C28.9344 30.388 29.1747 30.3301 29.3665 30.1552C29.493 30.0398 29.656 29.9649 29.8024 29.8718C29.8376 29.8592 29.8773 29.8531 29.9072 29.8325C29.9523 29.8015 30.0029 29.7219 30.0294 29.7302C30.1142 29.7561 30.1239 29.7081 30.1606 29.6545C30.1947 29.6043 30.2612 29.5755 30.314 29.5384C30.3468 29.5154 30.3839 29.4979 30.4132 29.4712C30.4937 29.3982 30.5754 29.3255 30.6477 29.2448C30.6816 29.2069 30.7248 29.1354 30.711 29.1056C30.6887 29.058 30.6222 29.0326 30.5745 28.9977C30.5652 28.9979 30.5483 28.9996 30.5483 28.9984C30.5223 28.7971 30.2968 28.7911 30.2069 28.6369C30.1142 28.4781 29.9481 28.3643 29.9074 28.1607L29.8347 28.1769C29.8524 27.9715 29.7025 27.8498 29.6431 27.6905L29.5663 27.7215C29.5214 27.6374 29.4751 27.5676 29.4465 27.4907C29.4273 27.4388 29.3245 27.1963 29.2964 27.1576C29.2103 27.038 29.1172 26.9211 29.0491 26.7912C28.9283 26.5606 28.7962 26.3339 28.7426 26.0718L28.7833 26.0732ZM16.6531 12.8257L16.6687 12.8463L16.6643 12.8235L16.6619 12.8015C16.6588 12.8095 16.6559 12.8176 16.6531 12.8257ZM30.0757 25.7735L30.114 25.7405L30.0825 25.7277L30.0757 25.7735ZM35.2127 23.3522L35.2016 23.3306L35.2088 23.3529L35.1635 23.4334L35.1911 23.4421L35.2127 23.3522ZM29.7236 16.642L29.6528 16.6692L29.6969 16.7291C29.6754 16.7412 29.64 16.7492 29.6344 16.7664C29.5646 16.9783 29.4862 17.1888 29.4358 17.4051C29.3635 17.7137 29.3007 18.0239 29.1945 18.3245C29.1834 18.3563 29.1958 18.3963 29.1991 18.4322C29.2045 18.486 29.2236 18.541 29.2159 18.5929C29.196 18.7229 29.164 18.8514 29.1354 18.9889L29.0714 18.9928C29.0765 19.154 29.0832 19.3094 29.0847 19.4651C29.0852 19.5034 29.0699 19.5427 29.0588 19.5808C29.0309 19.6751 28.964 19.7631 29.0333 19.8688C29.0527 19.8987 29.0452 19.9741 29.0204 20.0022C28.9128 20.1251 29.0352 20.2527 28.9938 20.3756C28.9889 20.3901 29.0326 20.4202 29.0498 20.4389C29.0275 20.4753 28.9875 20.5116 28.9933 20.5354C29.0466 20.7553 29.0471 20.7832 28.9683 20.9859C28.9637 20.9975 28.9683 21.0123 28.9683 21.0257C28.9681 21.1905 28.9615 21.3559 28.971 21.5198C28.9739 21.5695 29.0207 21.6154 29.0478 21.6634C28.9576 21.7439 29.0435 21.781 29.0959 21.8149C29.0842 21.8392 29.0663 21.859 29.0677 21.8767C29.0735 21.9505 29.1019 22.0259 29.0912 22.0967C29.0546 22.343 29.0983 22.5714 29.1756 22.801C29.228 22.957 29.2576 23.1226 29.2835 23.2867C29.3034 23.4133 29.2891 23.5471 29.3141 23.672C29.3347 23.7743 29.4023 23.8653 29.4288 23.9671C29.4809 24.1671 29.5401 24.3589 29.6989 24.4734C29.6824 24.5156 29.6492 24.558 29.6567 24.5893C29.6836 24.7008 29.7333 24.8063 29.7578 24.9181C29.8132 25.1727 29.9145 25.4151 30.0568 25.6334C30.0992 25.6988 30.1833 25.75 30.1312 25.853C30.1264 25.8625 30.146 25.8841 30.1547 25.8996L30.3201 26.1923C30.3368 26.2299 30.372 26.2592 30.3994 26.2946C30.4234 26.3254 30.4411 26.362 30.4571 26.3981C30.5117 26.5215 30.597 26.6234 30.6705 26.7337C30.8164 26.9529 30.9195 27.2014 31.0548 27.4289C31.1486 27.5865 31.3164 27.6937 31.3601 27.8886C31.3639 27.9058 31.4083 27.9095 31.428 27.9262C31.4561 27.9504 31.4808 27.9793 31.5026 28.0096C31.5344 28.0535 31.5625 28.1003 31.6134 28.1788C31.6758 27.9315 31.8877 27.861 31.965 27.673C32.0094 27.5651 32.1352 27.489 32.2252 27.3995C32.311 27.3144 32.2822 27.1711 32.417 27.0938C32.4931 27.0501 32.499 26.8896 32.5547 26.7917C32.6153 26.6852 32.5853 26.5422 32.7177 26.4614C32.7957 26.4136 32.8505 26.3232 32.9114 26.2485C33.0756 26.0473 33.1417 25.8055 33.2198 25.5647C33.2795 25.381 33.2804 25.1768 33.4068 25.0143L33.4431 24.984L33.4002 24.9898C33.4097 24.9595 33.4153 24.9278 33.4291 24.8996C33.4994 24.7544 33.5826 24.614 33.64 24.4644C33.6779 24.3657 33.672 24.2518 33.7006 24.1487C33.7295 24.0454 33.7797 23.9477 33.8158 23.8459C33.8379 23.7838 33.849 23.7181 33.8687 23.6553C33.899 23.5583 33.8323 23.4531 33.9138 23.3551C33.9366 23.3275 33.8852 23.2482 33.8958 23.198C33.9351 23.0139 33.9865 22.8321 34.0331 22.6495C34.0435 22.6083 34.0692 22.562 34.06 22.5261C34.0161 22.3544 34.068 22.1966 34.1216 22.0353C34.155 21.9345 34.2098 21.8312 34.1337 21.723C34.1184 21.7012 34.1444 21.6498 34.1497 21.612C34.1521 21.5947 34.1509 21.5768 34.1502 21.5593C34.1463 21.4369 34.1386 21.3147 34.1395 21.1922C34.1405 21.0414 34.2581 20.8748 34.109 20.7699C34.1039 20.6549 34.0952 20.5633 34.0969 20.4716C34.1 20.2999 34.1242 20.1268 34.1116 19.9573C34.0988 19.7866 33.9957 19.6307 34.0353 19.4472C34.0437 19.4081 34.0343 19.3635 34.0251 19.324C33.9873 19.1642 33.9448 19.0059 33.9065 18.8463C33.8859 18.7602 33.8704 18.673 33.8527 18.5861L33.9451 18.5491C33.8059 18.5631 33.8893 18.4356 33.8464 18.3927C33.9351 18.2729 33.8905 18.101 33.746 18.0066C33.7217 17.9111 33.7006 17.8148 33.673 17.7205C33.6231 17.5508 33.5692 17.382 33.5171 17.213C33.5154 17.0915 33.4744 16.9938 33.3607 16.94C33.3558 16.9337 33.3519 16.9268 33.3491 16.9194C33.4184 16.8226 33.391 16.7072 33.2703 16.5884C33.246 16.5448 33.2198 16.5021 33.198 16.4572C33.1607 16.3804 33.1257 16.3023 33.0899 16.2247L33.1139 16.2179L33.0867 16.206C33.0414 16.0996 32.9875 15.9963 32.9529 15.8862C32.9235 15.7931 32.8076 15.7516 32.8321 15.62C32.8425 15.5642 32.7616 15.4939 32.7327 15.4471L32.5668 15.113L32.4754 14.9913L32.4742 14.9866C32.4779 14.9532 32.4968 14.9098 32.483 14.888C32.4202 14.7878 32.3481 14.694 32.2795 14.5977C32.2121 14.533 32.1292 14.4779 32.0819 14.4003C32.038 14.3286 31.9051 14.3589 31.9173 14.2391L31.9747 14.2401L31.9704 14.2166L31.9175 14.2403C31.8372 14.2066 31.7761 14.1632 31.7917 14.0568C31.7958 14.0279 31.7686 13.9925 31.7497 13.9646C31.6724 13.8494 31.5916 13.7365 31.5143 13.6213C31.4607 13.5418 31.3843 13.5447 31.3392 13.6303C31.2708 13.7605 31.2129 13.8979 31.1295 14.0177C31.071 14.1019 30.9779 14.1618 30.9003 14.2323L30.8557 14.3409L30.8038 14.4079C30.7759 14.413 30.7374 14.4081 30.7224 14.4248C30.6794 14.4726 30.646 14.5291 30.6089 14.5822C30.6171 14.6167 30.6135 14.653 30.5987 14.6853C30.5735 14.7393 30.5407 14.7902 30.5114 14.8424C30.4316 15 30.3543 15.1588 30.2709 15.3142C30.2408 15.3705 30.1855 15.4144 30.1598 15.4716C30.0878 15.6316 30.025 15.7955 29.9588 15.958C29.936 15.9616 29.9023 15.9575 29.8929 15.9706C29.8723 15.9992 29.8735 16.0506 29.849 16.0681C29.7467 16.1406 29.7954 16.2048 29.8436 16.2725L29.7619 16.456C29.6421 16.4987 29.696 16.5727 29.7236 16.642ZM35.0464 18.0403L35.0837 18.1349L35.1065 18.3417L35.2205 18.342L35.1652 18.4724L35.2484 18.4685C35.2433 18.5435 35.2357 18.615 35.235 18.6863C35.2345 18.7282 35.2462 18.7699 35.25 18.8119C35.2656 18.9848 35.2714 19.1594 35.2978 19.3303C35.3192 19.468 35.3793 19.599 35.396 19.7369C35.4159 19.9006 35.4043 20.0689 35.4132 20.2345C35.4186 20.3366 35.4634 20.4425 35.4431 20.5381C35.4079 20.7024 35.4244 20.8654 35.4069 21.0283C35.3926 21.1622 35.4178 21.2987 35.4115 21.4337C35.4028 21.6234 35.3815 21.813 35.3645 22.0023C35.3529 22.1323 35.3422 22.2623 35.3255 22.3918C35.3063 22.5406 35.2753 22.6883 35.2598 22.8372C35.2454 22.9734 35.2445 23.1109 35.2384 23.2477C35.236 23.2996 35.25 23.3566 35.2321 23.4024C35.1691 23.5644 35.0978 23.7229 35.0791 23.8978C35.0757 23.9288 35.0619 23.9596 35.05 23.9894C35.034 24.0299 35.0088 24.068 34.9991 24.1094C34.9821 24.1805 34.9841 24.2569 34.9603 24.3252C34.8851 24.542 34.7976 24.7549 34.7232 24.9719C34.6734 25.1171 34.6528 25.2714 34.5789 25.4091C34.5566 25.4505 34.5243 25.4876 34.5064 25.5306C34.4652 25.6305 34.429 25.7325 34.3924 25.8344C34.3738 25.8868 34.3687 25.9466 34.3393 25.9917C34.2879 26.0708 34.2227 26.1409 34.163 26.2151L34.2334 26.2742C34.1963 26.3341 34.1286 26.3993 34.141 26.4321C34.1689 26.5063 34.1276 26.5402 34.0981 26.5894C34.0365 26.692 33.9802 26.798 33.9181 26.9003C33.8723 26.9757 33.8122 27.0436 33.7731 27.1219C33.7297 27.2092 33.7125 27.3093 33.6669 27.3952C33.5998 27.5215 33.5127 27.6372 33.4431 27.7625C33.3743 27.8864 33.3229 28.0181 33.1932 28.0996C33.1488 28.1274 33.101 28.1876 33.0962 28.2361C33.0843 28.3546 33.0249 28.4446 32.9444 28.5156C32.8915 28.5622 32.8113 28.5767 32.7431 28.6056L32.6968 28.578L32.7446 28.7339C32.6978 28.8008 32.657 28.8798 32.5974 28.94C32.4497 29.0886 32.4461 29.085 32.6119 29.1997L32.6277 29.2205L32.6212 29.1977C32.6444 29.2198 32.666 29.2443 32.6912 29.2637C32.8389 29.3779 32.9917 29.4863 33.1337 29.607C33.1902 29.655 33.2128 29.7442 33.2705 29.7893C33.4291 29.9137 33.5988 30.0238 33.7622 30.1419C33.8175 30.1819 33.8614 30.2399 33.9203 30.2719C34.0605 30.348 34.2081 30.4106 34.3497 30.4845C34.4664 30.5454 34.558 30.6414 34.6582 30.7214C34.8187 30.8497 35.0372 30.9047 35.2302 30.9923C35.2573 31.0046 35.2789 31.0277 35.3046 31.0439C35.34 31.0662 35.3744 31.0982 35.4135 31.105C35.5512 31.1295 35.6909 31.1445 35.8296 31.1647C35.8522 31.1674 35.874 31.1748 35.8936 31.1865C35.9612 31.2301 36.0209 31.2944 36.0948 31.3184C36.2369 31.3647 36.3894 31.3812 36.5327 31.4248C36.668 31.4658 36.7931 31.5531 36.9301 31.5701C37.0713 31.5875 37.1811 31.6632 37.3074 31.6971C37.4852 31.7451 37.6755 31.7543 37.8615 31.7677C37.9592 31.7747 38.079 31.718 38.1541 31.7563C38.2739 31.8174 38.3782 31.8193 38.4759 31.7844C38.7138 31.9333 38.9381 31.936 39.1871 31.8167L39.204 31.8904C39.3238 31.8511 39.4662 31.9425 39.5726 31.8118C39.5813 31.8009 39.6177 31.8164 39.64 31.8123C39.6849 31.8038 39.729 31.7897 39.7736 31.7791C39.7843 31.7773 39.7952 31.7775 39.8059 31.7796C39.922 31.7963 40.0636 31.8639 40.1487 31.8186C40.2913 31.7427 40.3934 31.8433 40.5134 31.8259C40.6177 31.8334 40.7248 31.829 40.8255 31.8516C40.9789 31.8858 41.1019 31.8482 41.2049 31.7269L41.2292 31.7311C41.2765 31.7369 41.332 31.7616 41.3691 31.7444C41.4367 31.7129 41.4937 31.6564 41.5551 31.6103L41.6256 31.4968C41.7122 31.6098 41.8911 31.5783 41.9498 31.4857L42.2357 31.4183L42.2345 31.4185C42.4912 31.3395 42.7451 31.2536 43.0113 31.0972C43.0244 31.1006 43.0771 31.1198 43.1311 31.1268C43.1702 31.1319 43.2172 31.1319 43.2512 31.1145C43.319 31.0798 43.3772 31.0245 43.4451 30.9903C43.6963 30.8635 43.9463 30.7374 44.1544 30.5381C44.1939 30.5003 44.2642 30.4952 44.32 30.4741C44.4114 30.4394 44.5023 30.4043 44.5935 30.3691C44.6951 30.3109 44.8003 30.258 44.8973 30.1928C44.9802 30.1371 45.0532 30.0663 45.1315 30.0032C45.2882 29.8771 45.4453 29.7515 45.6022 29.6259C45.6078 29.6188 45.6139 29.6121 45.6204 29.6058L45.6587 29.6114L45.6402 29.5774C45.7564 29.4993 45.8728 29.4218 45.9887 29.3432C46.0144 29.3257 46.041 29.308 46.0624 29.2857C46.2193 29.1226 46.3781 28.9611 46.5294 28.7928C46.6045 28.7094 46.6669 28.6138 46.7318 28.5217C46.8332 28.3784 46.9215 28.2242 47.0352 28.092C47.1317 27.9803 47.257 27.8937 47.3683 27.7945C47.3882 27.7768 47.412 27.754 47.4171 27.7303C47.445 27.5976 47.5114 27.5145 47.6263 27.4585C47.6506 27.4466 47.6748 27.3748 47.6734 27.3741C47.5567 27.3057 47.6508 27.2596 47.6954 27.214C47.919 26.9854 48.1064 26.7315 48.2483 26.4444C48.2694 26.4015 48.3072 26.3625 48.3147 26.3181C48.3373 26.1889 48.3583 26.0628 48.4726 25.9753C48.4949 25.9583 48.5327 25.935 48.5315 25.9178C48.5196 25.7539 48.6537 25.6862 48.7385 25.5839C48.7803 25.5337 48.7853 25.452 48.828 25.4035C48.8932 25.3296 48.8625 25.2284 48.9049 25.1664C49.0181 25.0015 49.0416 24.8167 49.0867 24.6337C49.1486 24.3829 49.2104 24.1305 49.2996 23.8883C49.3811 23.6669 49.4471 23.4509 49.4306 23.2142C49.4252 23.1391 49.4262 23.0346 49.4703 22.9892C49.5637 22.8939 49.5295 22.7981 49.5302 22.6978C49.531 22.5848 49.5125 22.463 49.5489 22.3605C49.6141 22.1762 49.6612 21.9968 49.6328 21.8035C49.6291 21.779 49.6413 21.7516 49.6459 21.7257C49.6679 21.5977 49.7024 21.4699 49.7094 21.3416C49.7206 21.1399 49.7128 20.9376 49.7143 20.7357C49.7155 20.5713 49.7196 20.4066 49.7203 20.2422C49.7208 20.1462 49.724 20.0495 49.7138 19.9547C49.6951 19.7832 49.6672 19.613 49.6435 19.4423C49.6372 19.3975 49.6277 19.3526 49.6265 19.3075C49.6199 19.0822 49.6195 18.8565 49.6081 18.6315C49.6047 18.5626 49.5722 18.4962 49.5552 18.4281C49.5334 18.3415 49.5137 18.2542 49.4868 18.1412C49.5535 18.0925 49.4604 18.0682 49.4366 18.0493C49.4347 17.9601 49.4609 17.8616 49.4272 17.8325C49.2919 17.7149 49.3697 17.5326 49.2863 17.3995C49.2279 17.3061 49.2119 17.1854 49.1682 17.0809C49.1602 17.0615 49.1107 17.0605 49.1124 17.061C49.0819 16.9611 49.0552 16.8821 49.0336 16.8013C48.9958 16.6595 48.9682 16.5142 48.9226 16.3753C48.8838 16.2572 48.8239 16.1469 48.7771 16.0315C48.7611 15.9922 48.7628 15.9447 48.7449 15.9068C48.7005 15.814 48.636 15.7293 48.6037 15.6326C48.5584 15.4971 48.5358 15.3603 48.4047 15.2669C48.3494 15.2277 48.2689 15.1632 48.2914 15.0574C48.2953 15.039 48.2711 15.015 48.2587 14.9942C48.2269 14.9406 48.1942 14.8875 48.1624 14.8339C48.1447 14.8043 48.1353 14.7636 48.1096 14.7466C48.0223 14.6889 47.96 14.6261 48.008 14.5022L47.952 14.5647L47.7544 14.338L47.7546 14.3397C47.7536 14.3155 47.7609 14.2857 47.75 14.268C47.7182 14.2163 47.6719 14.1734 47.644 14.1198C47.5662 13.9717 47.4947 13.8199 47.4163 13.6606L47.4505 13.6203C47.2653 13.6433 47.1938 13.5885 47.163 13.4147L47.0568 13.4729L47.0994 13.3429C46.9552 13.1645 46.8225 12.9969 46.6848 12.834C46.655 12.7986 46.5805 12.7872 46.5711 12.7515C46.519 12.5573 46.382 12.4647 46.2105 12.3915C46.1063 12.3468 46.0124 12.2741 45.9222 12.2033C45.8461 12.1434 45.7821 12.068 45.7127 11.9994L45.713 12.0011L45.8083 11.8648L45.647 11.9172C45.568 11.8323 45.5156 11.7535 45.4436 11.7033C45.3064 11.6073 45.1575 11.5278 45.0137 11.4412L45.0139 11.4427L45.0782 11.351C45.0239 11.3549 44.9797 11.3447 44.9514 11.3622C44.8219 11.4412 44.7147 11.3309 44.6822 11.2744C44.5831 11.1022 44.4141 11.0285 44.2737 10.9158C44.1558 10.8212 44.0285 10.7519 43.8622 10.7717C43.8261 10.7761 43.7892 10.6891 43.7417 10.6663C43.6238 10.6103 43.498 10.5707 43.3797 10.5159C43.3552 10.5045 43.3486 10.4553 43.3302 10.4153C43.2706 10.4369 43.2104 10.4393 43.2291 10.3508C43.1597 10.3452 43.0982 10.3501 43.0436 10.3336C42.9202 10.2963 42.8016 10.2449 42.6787 10.2063C42.5846 10.1767 42.4859 10.161 42.3911 10.1338C42.3062 10.1096 42.2243 10.0766 42.1399 10.0506C42.0177 10.0131 41.8972 9.96044 41.7716 9.94613C41.5779 9.92382 41.4156 9.78052 41.2061 9.82271C41.1778 9.82829 41.1419 9.78876 41.1096 9.77034C41.0546 9.68717 40.9857 9.66777 40.8992 9.73033L40.8725 9.71311L40.8749 9.69081L40.857 9.70414C40.646 9.6845 40.4368 9.6862 40.2299 9.75579C40.2072 9.76355 40.1761 9.74754 40.1497 9.74003C40.0445 9.71044 39.9414 9.66195 39.834 9.65347C39.6247 9.63673 39.4235 9.59648 39.2196 9.5509C39.0251 9.50725 38.8205 9.55575 38.6226 9.6103C38.5327 9.63474 38.44 9.64737 38.3469 9.64789C38.2538 9.64837 38.1602 9.61127 38.0683 9.61928C37.9444 9.63019 37.8227 9.67529 37.6988 9.69347C37.482 9.72523 37.264 9.74779 37.0465 9.77397C36.9229 9.72184 36.8242 9.79531 36.7221 9.84987L36.709 9.85084L36.6612 9.84817C36.5192 9.918 36.3761 9.98614 36.2355 10.0589C36.1969 10.0788 36.1683 10.128 36.1295 10.1382C35.8538 10.2097 35.5754 10.2723 35.3252 10.4202C35.229 10.4771 35.1041 10.4672 35.0255 10.5647C35.0163 10.5763 34.9821 10.5639 34.9618 10.5707C34.9135 10.5867 34.8519 10.5945 34.8223 10.6289C34.6996 10.7713 34.4989 10.8021 34.3856 10.9551C34.3786 10.9645 34.3604 10.966 34.3476 10.9711C34.2882 10.9941 34.2254 11.0108 34.1701 11.0416C34.0062 11.133 33.8452 11.23 33.7234 11.3011L33.5537 11.6029C33.5188 11.5882 33.4987 11.5755 33.4766 11.5717C33.4553 11.5678 33.4322 11.5734 33.4111 11.5746C33.3922 11.691 33.391 11.6859 33.2615 11.7179C33.1238 11.7518 32.9878 11.7836 32.9267 11.9506C32.8976 12.0307 32.8297 12.134 32.7596 12.1558C32.5921 12.2082 32.4985 12.3374 32.3845 12.448C32.3285 12.5025 32.3423 12.55 32.3986 12.6017C32.4725 12.6693 32.5346 12.7498 32.6032 12.8235C32.6151 12.8364 32.6347 12.8509 32.6503 12.8497C32.748 12.842 32.8071 12.88 32.8389 12.9758C32.8486 13.0054 32.8978 13.0204 32.9427 13.0517C32.9614 13.1167 32.8847 13.2122 32.9684 13.3133C33.1083 13.4826 33.2278 13.6688 33.3559 13.848C33.3629 13.8504 33.3697 13.8533 33.3765 13.8565C33.3813 13.863 33.3871 13.8681 33.3939 13.872C33.32 13.9654 33.3129 14.0388 33.4436 14.0771C33.4647 14.0832 33.4812 14.1038 33.4999 14.1176C33.545 14.1804 33.5794 14.2563 33.6374 14.3029C33.7377 14.3839 33.8093 14.4704 33.7938 14.6098C33.793 14.6166 33.8008 14.6266 33.8073 14.6314C33.9834 14.757 33.9819 14.757 33.9965 14.9425C33.9984 14.9677 34.0166 14.9983 34.037 15.0128C34.1223 15.0744 34.1548 15.1486 34.1325 15.2602C34.1221 15.3125 34.1502 15.377 34.1749 15.4287C34.244 15.5725 34.4499 15.6079 34.4482 15.8261C34.4477 15.8971 34.5185 15.9864 34.4758 16.0877L34.5396 16.0683C34.5462 16.1542 34.5355 16.2376 34.5609 16.3069C34.6354 16.5111 34.713 16.7155 34.8708 16.8736C34.8868 16.8896 34.8735 16.9359 34.8737 16.9681L34.8507 16.972L34.8759 16.9812L34.9768 16.9975C34.9533 17.0418 34.9137 17.0816 34.9171 17.1156C34.9392 17.3328 34.971 17.5491 34.9996 17.7656C34.9894 17.803 34.9642 17.8442 34.9719 17.8764C34.986 17.9339 35.0209 17.986 35.0464 18.0403ZM45.2629 11.5651C45.2615 11.5477 45.2646 11.5319 45.2583 11.5246C45.252 11.5173 45.2363 11.5188 45.2249 11.5161C45.2244 11.5292 45.2198 11.545 45.2251 11.5549C45.2288 11.562 45.2462 11.5612 45.2629 11.5651ZM28.4463 32.0424L28.4329 32.0092C28.4269 32.0128 28.4169 32.016 28.416 32.0203C28.4148 32.029 28.4167 32.0378 28.4213 32.0453C28.4225 32.048 28.4339 32.0441 28.4463 32.0424ZM36.4491 31.4677L36.4539 31.4391C36.4433 31.4411 36.4309 31.4406 36.4224 31.4462C36.4176 31.4493 36.419 31.4624 36.4176 31.4709L36.4491 31.4677ZM17.4472 10.618C17.4397 10.6183 17.4281 10.6156 17.4259 10.6192C17.4215 10.6258 17.4227 10.636 17.4218 10.6444L17.4528 10.6442L17.4472 10.618ZM48.3899 15.1513C48.3906 15.1559 48.3896 15.1637 48.3921 15.1646C48.3996 15.1683 48.4083 15.1697 48.4168 15.1719C48.4163 15.1673 48.417 15.1595 48.4148 15.1583C48.4071 15.1547 48.3984 15.1535 48.3899 15.1513ZM50.9489 21.722L50.9577 21.7179L50.9518 21.7128L50.9489 21.722ZM48.6556 28.1143L48.6457 28.1182L48.6525 28.1245L48.6556 28.1143ZM28.8587 15.2117L28.8631 15.2214L28.8691 15.2138L28.8587 15.2117ZM46.398 28.9967L46.389 29.0003L46.396 29.0062L46.398 28.9967ZM33.1124 16.1457L33.1156 16.1546L33.1216 16.1474L33.1124 16.1457ZM33.9072 23.6829L33.8978 23.687L33.9043 23.6929L33.9072 23.6829ZM17.205 12.3153L17.2125 12.3127L17.2067 12.3076L17.205 12.3153ZM39.7244 8.31793L39.7169 8.32156L39.7222 8.32593L39.7244 8.31793ZM50.2627 24.8456L50.2538 24.849L50.2601 24.855L50.2627 24.8456ZM42.1797 10.0082L42.1823 10.016L42.1879 10.0097L42.1797 10.0082ZM29.6259 24.4491L29.6167 24.453L29.6232 24.4588L29.6259 24.4491ZM46.1637 12.2971L46.1666 12.3051L46.172 12.2993L46.1637 12.2971ZM29.8082 25.2105L29.8005 25.2139L29.8053 25.2185L29.8082 25.2105ZM37.5016 32.9517L37.5087 32.9483L37.5038 32.9442L37.5016 32.9517ZM45.0886 11.3015L45.0918 11.31L45.0973 11.3035L45.0886 11.3015ZM13.6196 20.0196L13.6108 20.0226L13.6169 20.0284L13.6196 20.0196ZM43.515 9.03249L43.505 9.03758L43.5123 9.0434L43.515 9.03249ZM34.4666 15.9757L34.4758 15.9713L34.4693 15.966L34.4666 15.9757ZM24.1516 8.47287L24.1419 8.47747L24.1492 8.48329L24.1516 8.47287ZM23.5723 31.7861L23.5697 31.7784L23.5643 31.7842L23.5723 31.7861ZM23.4077 33.0339L23.3968 33.0344C23.3973 33.038 23.3963 33.0431 23.3982 33.0448C23.4002 33.0465 23.405 33.0448 23.4087 33.0448C23.4085 33.0411 23.4081 33.0375 23.4077 33.0339ZM22.8098 32.9689L22.7993 32.973L22.8066 32.9798L22.8098 32.9689Z" fill="#E3B38A"/>
<path d="M27.7376 2.37964C27.8569 2.29041 27.7781 2.14614 27.836 2.04527C27.9114 1.91312 28.0067 1.79213 28.0955 1.66774C28.1083 1.6498 28.1454 1.64325 28.1503 1.62603C28.1913 1.47691 28.3135 1.40029 28.4282 1.32828C28.5348 1.26111 28.66 1.22523 28.7739 1.16922C28.7928 1.16 28.7943 1.09938 28.8093 1.09647C28.9778 1.06423 29.1471 1.02689 29.3166 1.0201C29.3537 1.01864 29.3828 1.01646 29.4196 1.01137C29.5331 0.995849 29.6934 0.97936 29.7559 1.04289C29.8272 1.11539 29.9043 1.10714 29.9749 1.1377C30.0285 1.16097 30.0973 1.14764 30.1579 1.15758C30.3168 1.18377 30.3711 1.34355 30.488 1.42212C30.5859 1.48807 30.6371 1.61706 30.7721 1.63113C30.7775 1.67283 30.7683 1.72763 30.7908 1.7543C30.8985 1.8816 31.0815 1.94998 31.0672 2.16966C31.0643 2.21427 31.1283 2.28774 31.1746 2.29914C31.2115 2.30835 31.2707 2.24628 31.316 2.21039C31.3996 2.1442 31.4011 2.038 31.4423 1.95119C31.4937 1.84256 31.5713 1.74557 31.6378 1.64325C31.6492 1.5562 31.6155 1.45194 31.7352 1.40611C31.7491 1.40078 31.759 1.37871 31.7665 1.36247C31.7728 1.34913 31.8839 1.14279 31.8931 1.13357C31.9622 1.06568 32.0352 1.00094 32.0972 0.927229C32.1176 0.902982 32.1094 0.85473 32.1157 0.807448L32.1845 0.822238C32.3118 0.687909 32.4272 0.547517 32.5628 0.43113C32.6287 0.374392 32.7335 0.365663 32.8184 0.329293C32.8438 0.318381 32.861 0.287102 32.8819 0.26528L32.8795 0.265764C32.9037 0.24176 32.9345 0.221635 32.9507 0.193265C32.9922 0.121251 33.038 0.0780909 33.128 0.104763C33.223 0.13289 33.313 0.12513 33.4088 0.067907C33.4868 0.022773 33.5754 -0.000668457 33.6656 1.4508e-05C33.8181 0.00340912 33.9689 0.0497214 34.1212 0.0487515C34.3755 0.0470542 34.5178 0.269886 34.7421 0.330262C34.7986 0.345538 34.9087 0.413915 34.8723 0.534667L34.8091 0.524725L34.8112 0.560126L34.8721 0.531272C34.9555 0.615653 35.0384 0.70076 35.1231 0.784171C35.1388 0.799689 35.1616 0.80769 35.1803 0.818601C35.1534 0.859337 35.2865 1.38914 35.3835 1.54044L35.334 1.59112C35.3597 1.6738 35.4065 1.74776 35.399 1.81735C35.3854 1.94295 35.4739 2.05448 35.4082 2.19293C35.3801 2.25234 35.4438 2.36533 35.4676 2.44608C35.5008 2.55955 35.4516 2.64878 35.4565 2.74383C35.4657 2.92108 35.2787 3.05008 35.3469 3.23823C35.36 3.27412 35.2831 3.33765 35.27 3.39317C35.2424 3.51102 35.2327 3.63274 35.2091 3.75179C35.1958 3.8192 35.1706 3.88467 35.1492 3.95038C35.1211 4.03694 35.0964 4.12496 35.0612 4.20837C35.012 4.32475 34.9543 4.43775 34.8954 4.56238L34.9565 4.59753L34.9587 4.59705L34.9153 4.62275L34.8437 4.54007L34.8231 4.55607L34.8733 4.63221C34.8432 4.70277 34.8183 4.77575 34.7826 4.8434C34.6706 5.05643 34.5552 5.26765 34.4364 5.47698C34.4056 5.53105 34.3566 5.57664 34.3105 5.62004C34.1466 5.77401 34.16 6.03467 33.9582 6.17385C33.8792 6.2284 33.8438 6.3494 33.7885 6.44008C33.7827 6.44954 33.7781 6.46724 33.7718 6.46797C33.6246 6.48251 33.6328 6.61951 33.5787 6.7085C33.5324 6.78464 33.4767 6.85495 33.424 6.92721C33.336 7.04796 33.248 7.16896 33.1581 7.28849C33.0851 7.38524 33.0097 7.48005 32.9352 7.57558L32.936 7.57776C32.8346 7.65851 32.7548 7.74919 32.7868 7.89152L32.7866 7.89007L32.701 7.87552C32.6763 7.97372 32.668 8.05107 32.6375 8.11896C32.5878 8.22904 32.5194 8.33064 32.468 8.44024C32.4522 8.47394 32.4774 8.5251 32.4648 8.56172C32.4183 8.6958 32.3598 8.8231 32.2468 8.92009C32.1748 8.98216 32.1135 9.05684 32.0454 9.12377C31.9995 9.16887 31.9348 9.2016 31.9047 9.2547C31.7786 9.47753 31.638 9.6766 31.3628 9.71637C31.3402 9.71952 31.3036 9.73165 31.2971 9.72219C31.2154 9.60702 31.1831 9.75032 31.1482 9.7428C31.0711 9.71176 31.009 9.66788 30.944 9.66521C30.8427 9.66133 30.7668 9.63999 30.7067 9.55125C30.6768 9.50736 30.6155 9.47778 30.5622 9.45983C30.4414 9.41958 30.4004 9.3483 30.4426 9.25325C30.3963 9.20694 30.3529 9.17396 30.3226 9.13104C30.2862 9.07988 30.2591 9.02144 30.2317 8.96446C30.1941 8.88639 30.1213 8.80152 30.1325 8.7283C30.157 8.56826 30.0239 8.57142 29.9574 8.50571L30.0197 8.50692L30.0491 8.53553L30.0425 8.50255L30.0942 8.41308L30.0142 8.47273L29.9538 8.45551C29.9368 8.43054 29.9235 8.40217 29.9026 8.38156C29.843 8.32337 29.7688 8.27027 29.8597 8.21644C29.8284 8.1066 29.8061 8.01785 29.7778 7.93105C29.7552 7.86218 29.7382 7.78508 29.6953 7.73076C29.6155 7.62941 29.5937 7.48975 29.4756 7.41094C29.4424 7.38863 29.4623 7.29698 29.4424 7.24339C29.351 6.99874 29.2545 6.75627 29.1592 6.51307C29.1495 6.48809 29.1427 6.45754 29.1245 6.44081C29.0372 6.36176 28.979 6.28029 28.9904 6.14427C28.9948 6.09044 28.8968 6.03685 28.8602 5.97405C28.771 5.82178 28.691 5.66417 28.6052 5.50947C28.595 5.49105 28.5736 5.47941 28.5574 5.46437C28.5678 5.45686 28.5855 5.45007 28.5865 5.44158C28.5938 5.37684 28.4594 5.15934 28.4102 5.12273C28.3717 5.09412 28.3205 5.04005 28.3253 5.00295C28.3508 4.81479 28.2262 4.69937 28.1542 4.55559C28.1077 4.45911 28.0838 4.35329 28.0843 4.24619C28.0863 3.9368 27.9214 3.69069 27.8229 3.41936C27.8045 3.36844 27.8033 3.31049 27.796 3.25569C27.7873 3.19119 27.7943 3.12015 27.7701 3.06341C27.7269 2.96254 27.6818 2.87331 27.7502 2.75814C27.7701 2.72468 27.7315 2.66066 27.7298 2.60999C27.7276 2.54743 27.7361 2.48414 27.7398 2.42134L27.8052 2.44874L27.8217 2.4148C27.7936 2.40324 27.7656 2.39152 27.7376 2.37964ZM35.0021 0.805751L35.051 0.779806L35.0113 0.698335C34.9965 0.708277 34.9676 0.72234 34.9688 0.727916C34.9756 0.755073 34.9902 0.780049 35.0021 0.805751ZM32.4049 0.582918C32.3846 0.59189 32.3649 0.596496 32.3644 0.601588C32.3642 0.617715 32.3677 0.633676 32.3749 0.648143C32.3761 0.650811 32.4054 0.645476 32.4064 0.641112C32.4095 0.625109 32.4062 0.60765 32.4049 0.582918ZM35.4058 2.88713L35.4099 2.85973C35.3973 2.85856 35.3847 2.85727 35.3721 2.85585C35.3718 2.86313 35.3689 2.8755 35.3718 2.87695C35.3815 2.88228 35.3937 2.88398 35.4058 2.88713ZM31.9615 1.14182C31.9629 1.133 31.9643 1.12419 31.9658 1.11539C31.9552 1.11709 31.944 1.11757 31.9345 1.12193C31.9324 1.1229 31.936 1.13745 31.937 1.1457L31.9615 1.14182ZM31.8114 9.35484C31.8002 9.3643 31.7893 9.37133 31.782 9.38103C31.7796 9.38443 31.7866 9.39485 31.7893 9.40213C31.7997 9.39509 31.8111 9.38903 31.8196 9.38006C31.8218 9.37739 31.8152 9.36624 31.8114 9.35484ZM34.4815 0.228909L34.4718 0.233273L34.4863 0.245155C34.4871 0.24176 34.489 0.23788 34.4883 0.234971C34.4878 0.232546 34.4839 0.230848 34.4815 0.228909ZM34.441 5.44207L34.4386 5.46146C34.4424 5.46049 34.4492 5.46074 34.45 5.45855C34.4524 5.45273 34.4526 5.4457 34.4536 5.43916L34.441 5.44207ZM30.213 8.78285C30.2123 8.77824 30.2132 8.77194 30.2108 8.77C30.2081 8.76806 30.2023 8.77073 30.1977 8.77121L30.2033 8.7877L30.213 8.78285ZM30.3301 9.0035L30.3294 8.99138L30.3175 8.99356L30.3216 9.00811L30.3301 9.0035ZM30.4043 9.09273C30.4038 9.08837 30.4045 9.08206 30.4021 9.08012C30.3997 9.07818 30.3939 9.08061 30.3895 9.08134L30.3948 9.09734L30.4043 9.09273ZM30.3519 9.12062L30.3502 9.10679L30.3367 9.1097L30.3422 9.12619L30.3519 9.12062ZM30.59 9.4305L30.5883 9.44868C30.5925 9.44795 30.5992 9.4482 30.6 9.44626C30.6022 9.44044 30.6022 9.43365 30.6031 9.42734L30.59 9.4305Z" fill="#9A5B46"/>
<path d="M31.6378 1.64325C31.5713 1.74557 31.4937 1.84256 31.4423 1.95119C31.4011 2.038 31.3996 2.1442 31.316 2.21039C31.2707 2.24628 31.2115 2.30835 31.1746 2.29914C31.1283 2.28774 31.0643 2.21427 31.0672 2.16966C31.0815 1.94998 30.8985 1.8816 30.7908 1.7543C30.7683 1.72763 30.7775 1.67283 30.7721 1.63113C30.8909 1.70314 30.9938 1.79241 31.0776 1.90468C31.1123 1.95099 31.1555 1.99076 31.2069 2.04677L31.1235 2.12848C31.1933 2.1326 31.2641 2.15782 31.2903 2.13357C31.3325 2.09478 31.3461 2.02373 31.3698 1.9653C31.3851 1.92795 31.397 1.8894 31.4137 1.84236L31.3827 1.81836L31.3829 1.81957C31.4089 1.80648 31.4384 1.79799 31.4598 1.77956C31.4869 1.7558 31.5221 1.72646 31.5277 1.69542C31.5422 1.61347 31.574 1.59888 31.6378 1.64325Z" fill="#E3B38A"/>
<path d="M29.8517 31.3138C29.938 31.1829 30.0857 31.1341 30.2025 31.0439C30.3475 30.9296 30.4962 30.8201 30.6484 30.7156C30.7413 30.6533 30.847 30.6107 30.9469 30.5592C30.8992 30.7093 30.7488 30.7481 30.648 30.8405C30.4142 31.0544 30.1807 31.2692 29.8517 31.3138Z" fill="#E3B38A"/>
<path d="M44.3717 31.9279C44.3925 31.8968 44.4071 31.8508 44.4357 31.8374C44.5911 31.7652 44.7499 31.7009 44.9078 31.634L44.9298 31.6645C44.7926 31.771 44.659 31.8854 44.4917 31.9395C44.456 31.9509 44.4119 31.9325 44.3717 31.9279Z" fill="#E3B38A"/>
<path d="M27.6878 32.3926L28.1977 32.1874C28.1842 32.2226 28.1783 32.2801 28.1556 32.289C28.0574 32.3274 27.9756 32.4268 27.8493 32.379C27.8207 32.3681 27.7678 32.4175 27.7186 32.4432L27.6878 32.3926Z" fill="#E3B38A"/>
<path d="M35.1368 9.16197C35.0209 9.30915 34.8298 9.30988 34.687 9.40493C34.6756 9.41245 34.6519 9.40008 34.6339 9.39693C34.7624 9.22817 34.9285 9.14645 35.1368 9.16197Z" fill="#E3B38A"/>
<path d="M35.8465 8.86955C35.8046 8.90544 35.767 8.95102 35.7195 8.97527C35.6205 9.02619 35.5168 9.06717 35.4135 9.10839C35.3909 9.11736 35.3626 9.1096 35.3369 9.10936L35.3691 8.98643L35.8465 8.86955Z" fill="#E3B38A"/>
<path d="M35.8465 8.86955C35.9908 8.9292 36.2185 8.86543 36.2747 8.74928C36.1106 8.70297 35.9758 8.77499 35.8465 8.86955Z" fill="#E3B38A"/>
<path d="M23.1613 8.55579C23.0362 8.61883 22.9123 8.69012 22.7683 8.62659C22.8854 8.58004 23.0028 8.53235 23.1214 8.48992C23.1272 8.48798 23.1475 8.53276 23.1613 8.55579Z" fill="#E3B38A"/>
<path d="M23.164 8.55506C23.2598 8.64357 23.3522 8.5684 23.4455 8.54003C23.3502 8.47772 23.2552 8.43552 23.164 8.55506Z" fill="#E3B38A"/>
<path d="M27.3964 32.47C27.4548 32.3301 27.5486 32.4118 27.6316 32.4245C27.5663 32.4531 27.5018 32.4831 27.4354 32.5079C27.4276 32.5108 27.4097 32.4834 27.3964 32.47Z" fill="#E3B38A"/>
<path d="M23.5098 8.53591C23.5697 8.58513 23.6298 8.65787 23.687 8.52791L23.5098 8.53591Z" fill="#E3B38A"/>
<path d="M32.8819 0.26528L32.7941 0.240588L32.8836 0.161542L32.8795 0.265764L32.8819 0.26528Z" fill="#9A5B46"/>
<path d="M32.2293 10.875L32.2212 10.8335L32.2583 10.8371L32.2274 10.8753L32.2293 10.875Z" fill="#E3B38A"/>
<path d="M30.4368 10.7134L30.4646 10.6861L30.4702 10.6978L30.4361 10.7107L30.4368 10.7134Z" fill="#E3B38A"/>
<path d="M33.0172 10.3355L33.0335 10.3119L33.033 10.3104L33.0148 10.336L33.0172 10.3355Z" fill="#E3B38A"/>
<path d="M32.7868 7.89152L32.7871 7.89642L32.7866 7.89007L32.7868 7.89152Z" fill="#9A5B46"/>
<path d="M32.9352 7.57558L32.939 7.58177L32.936 7.57776L32.9352 7.57558Z" fill="#9A5B46"/>
<path d="M45.4456 31.3073L45.4518 31.3169L45.4473 31.307L45.4456 31.3073Z" fill="#E3B38A"/>
<path d="M50.0309 15.6125L50.04 15.6105L50.0307 15.611L50.0309 15.6125Z" fill="#E3B38A"/>
<path d="M43.7122 32.2748C43.7143 32.2783 43.7167 32.2817 43.7191 32.285C43.7176 32.2813 43.7161 32.2777 43.7144 32.2741L43.7122 32.2748Z" fill="#E3B38A"/>
<path d="M34.9565 4.59753L34.9628 4.59464L34.9587 4.59705L34.9565 4.59753Z" fill="#9A5B46"/>
<path d="M13.0621 16.2116L13.0513 16.217L13.0624 16.2133L13.0621 16.2116Z" fill="#E3B38A"/>
<path d="M31.3827 1.81836L31.37 1.82451L31.3829 1.81957L31.3827 1.81836Z" fill="#E3B38A"/>
<path d="M35.3577 32.4827L35.3631 32.4924L35.3593 32.4824C35.3588 32.4825 35.3583 32.4826 35.3577 32.4827Z" fill="#E3B38A"/>
<path d="M12.5374 18.1281L12.528 18.1322L12.5377 18.1296L12.5374 18.1281Z" fill="#E3B38A"/>
<path d="M32.7941 0.240588L32.789 0.241709L32.7948 0.239789L32.7941 0.240588Z" fill="#9A5B46"/>
<path d="M12.7384 23.9247C12.7399 23.9178 12.7409 23.9108 12.7439 23.9047C12.7449 23.9022 12.7513 23.9022 12.7555 23.9012L12.755 23.9L12.7384 23.9247Z" fill="#E3B38A"/>
<path d="M23.4131 33.0992L23.4165 33.1094L23.4145 33.099L23.4131 33.0992Z" fill="#E3B38A"/>
<path d="M29.8024 29.8718C29.9263 29.6916 30.0593 29.5311 30.2673 29.4299C30.3956 29.3676 30.4955 29.2372 30.5981 29.1278C30.6158 29.1089 30.5834 29.042 30.5745 28.9977C30.6222 29.0326 30.6887 29.058 30.711 29.1056C30.7248 29.1354 30.6816 29.2069 30.6477 29.2448C30.5754 29.3255 30.4937 29.3982 30.4132 29.4712C30.3839 29.4979 30.3468 29.5154 30.314 29.5384C30.2612 29.5755 30.1947 29.6043 30.1606 29.6545C30.1239 29.7081 30.1142 29.7561 30.0294 29.7302C30.0029 29.7219 29.9523 29.8015 29.9072 29.8325C29.8773 29.8531 29.8376 29.8592 29.8024 29.8718Z" fill="#E3B38A"/>
<path d="M44.5935 30.3691C44.6505 30.1783 44.8154 30.0834 44.9665 30.0039C45.151 29.9066 45.3319 29.8133 45.4854 29.6678C45.513 29.6416 45.5626 29.639 45.6022 29.6259C45.4453 29.7515 45.2882 29.8771 45.1315 30.0032C45.0532 30.0663 44.9802 30.1371 44.8973 30.1928C44.8003 30.258 44.6951 30.3109 44.5935 30.3691Z" fill="#E3B38A"/>
<path d="M27.9992 23.9715C27.9107 23.8767 27.8239 23.7692 27.8605 23.6325C27.894 23.5076 27.8625 23.4063 27.8273 23.2974C27.796 23.2061 27.7702 23.113 27.75 23.0185C27.7446 22.9916 27.777 22.9562 27.7921 22.9247C27.8377 23.0622 27.8823 23.2002 27.9296 23.3369C27.941 23.3701 27.9613 23.4004 27.9613 23.432C27.9688 23.4831 27.9785 23.534 27.9834 23.5857C27.9923 23.6773 27.9993 23.769 28.0045 23.8609C28.0064 23.8973 28.0011 23.9346 27.9992 23.9715Z" fill="#E3B38A"/>
<path d="M13.6169 20.7172C13.7352 20.7749 13.768 20.8613 13.7389 20.9987C13.7183 21.0955 13.7532 21.2017 13.7539 21.304C13.7542 21.3523 13.7328 21.4008 13.7212 21.4495C13.6664 21.321 13.6154 21.193 13.6237 21.0453C13.6298 20.9362 13.6198 20.8266 13.6169 20.7172Z" fill="#E3B38A"/>
<path d="M33.8464 18.3927C33.8272 18.3866 33.8062 18.384 33.7894 18.3741C33.7594 18.3566 33.732 18.3348 33.7034 18.3149L33.666 18.3346L33.6689 18.0618L33.6701 18.0616L33.746 18.0066C33.8905 18.101 33.9351 18.2729 33.8464 18.3927Z" fill="#E3B38A"/>
<path d="M40.5134 31.8259L40.705 31.7751C40.7426 31.7651 40.7804 31.7552 40.8177 31.738C40.9259 31.7406 41.0313 31.8233 41.1455 31.7205C41.1555 31.7116 41.1846 31.724 41.2049 31.7269C41.1019 31.8482 40.9789 31.8858 40.8255 31.8516C40.7248 31.829 40.6177 31.8334 40.5134 31.8259Z" fill="#E3B38A"/>
<path d="M32.2468 14.6451L32.2795 14.5977C32.3481 14.694 32.4202 14.7878 32.483 14.888C32.4968 14.9098 32.4779 14.9532 32.4742 14.9866C32.4182 14.9583 32.3656 14.9208 32.3062 14.9041C32.19 14.8711 32.2652 14.7979 32.2666 14.7382C32.2676 14.7069 32.254 14.6759 32.2468 14.6451Z" fill="#E3B38A"/>
<path d="M27.6478 21.3064C27.5426 21.1949 27.491 21.067 27.5463 20.9101C27.5618 20.8659 27.5896 20.8259 27.6119 20.7839L27.6944 20.9866C27.595 21.0334 27.611 21.0996 27.6505 21.1799C27.667 21.2129 27.6497 21.2638 27.6478 21.3064Z" fill="#E3B38A"/>
<path d="M30.8038 14.4079C30.7165 14.5398 30.7598 14.7381 30.5869 14.8256C30.5646 14.837 30.5366 14.8373 30.5114 14.8424C30.5407 14.7902 30.5735 14.7393 30.5987 14.6853C30.6135 14.653 30.6171 14.6167 30.6089 14.5822C30.646 14.5291 30.6794 14.4726 30.7224 14.4248C30.7374 14.4081 30.7759 14.413 30.8038 14.4079Z" fill="#E3B38A"/>
<path d="M13.7961 22.659C13.8989 22.7899 13.9343 22.9487 13.9644 23.109C13.9683 23.1299 13.9435 23.1575 13.9319 23.182L13.8295 23.1104L13.8637 23.0988C13.8424 23.0038 13.8417 22.8954 13.7934 22.818C13.7512 22.7504 13.768 22.7121 13.7961 22.659Z" fill="#E3B38A"/>
<path d="M27.6119 20.7825L27.5123 20.7432C27.618 20.6278 27.4747 20.4481 27.6398 20.3499C27.649 20.4008 27.6701 20.4527 27.665 20.5027C27.6553 20.5965 27.6306 20.6894 27.6119 20.7825Z" fill="#E3B38A"/>
<path d="M41.2292 31.7311C41.3606 31.5715 41.4375 31.5432 41.5551 31.6103C41.4937 31.6564 41.4367 31.7129 41.3691 31.7444C41.332 31.7616 41.2765 31.7369 41.2292 31.7311Z" fill="#E3B38A"/>
<path d="M28.4834 16.2698C28.4875 16.1779 28.4788 16.0829 28.5013 15.9953C28.5105 15.9595 28.5869 15.9396 28.6325 15.9124C28.6327 16.0516 28.5644 16.1631 28.4834 16.2698Z" fill="#E3B38A"/>
<path d="M37.0465 9.77397C37.0664 9.83774 37.0568 9.88685 36.9773 9.88176C36.8919 9.87618 36.807 9.86102 36.7221 9.84987C36.8242 9.79531 36.9229 9.72184 37.0465 9.77397Z" fill="#E3B38A"/>
<path d="M33.3939 13.872L33.5814 14.0018L33.4999 14.1176C33.4812 14.1038 33.4647 14.0832 33.4436 14.0771C33.3129 14.0388 33.32 13.9654 33.3939 13.872Z" fill="#E3B38A"/>
<path d="M33.3491 16.9194C33.2528 16.8452 33.2198 16.707 33.2703 16.5884C33.391 16.7072 33.4184 16.8226 33.3491 16.9194Z" fill="#E3B38A"/>
<path d="M29.9588 15.958L29.8436 16.2725C29.7954 16.2048 29.7467 16.1406 29.849 16.0681C29.8735 16.0506 29.8723 15.9992 29.8929 15.9706C29.9023 15.9575 29.936 15.9616 29.9588 15.958Z" fill="#E3B38A"/>
<path d="M35.0006 17.7654C35.1468 17.8423 35.1533 17.8823 35.0464 18.0403C35.0207 17.986 34.987 17.9337 34.9729 17.8762C34.9649 17.844 34.9901 17.8025 35.0006 17.7654Z" fill="#E3B38A"/>
<path d="M33.5171 17.213C33.4043 17.1585 33.3549 17.0658 33.3607 16.94C33.4744 16.9938 33.5154 17.0915 33.5171 17.213Z" fill="#E3B38A"/>
<path d="M41.1096 9.77034C41.019 9.85278 40.9467 9.84914 40.8992 9.73033C40.9857 9.66777 41.0546 9.68717 41.1096 9.77034Z" fill="#E3B38A"/>
<path d="M13.7212 21.4495C13.8014 21.5572 13.7937 21.6003 13.6872 21.6374L13.7212 21.4495Z" fill="#E3B38A"/>
<path d="M29.7619 16.456L29.7236 16.642C29.696 16.5727 29.6421 16.4987 29.7619 16.456Z" fill="#E3B38A"/>
<path d="M32.5668 15.113C32.5365 15.0723 32.506 15.0317 32.4754 14.9913L32.5668 15.113Z" fill="#E3B38A"/>
<path d="M29.7236 16.642L29.6969 16.7291L29.6528 16.6692L29.7236 16.642Z" fill="#E3B38A"/>
<path d="M30.9003 14.2323C30.9384 14.2893 30.9435 14.3334 30.8557 14.3409L30.9003 14.2323Z" fill="#E3B38A"/>
<path d="M36.709 9.85084L36.6796 9.88884L36.6612 9.84817L36.709 9.85084Z" fill="#E3B38A"/>
<path d="M45.6204 29.6058L45.6402 29.5774L45.6587 29.6114C45.6458 29.6096 45.6332 29.6078 45.6204 29.6058Z" fill="#E3B38A"/>
<path d="M40.8725 9.71311C40.8675 9.70975 40.8624 9.70684 40.857 9.70414L40.8749 9.69081L40.8725 9.71311Z" fill="#E3B38A"/>
<path d="M33.3559 13.848L33.375 13.8342L33.3775 13.8566C33.3707 13.8533 33.3631 13.8505 33.3559 13.848Z" fill="#E3B38A"/>
<path d="M47.7558 14.3381L47.7462 14.3427L47.7561 14.3399L47.7558 14.3381Z" fill="#E3B38A"/>
<path d="M42.2361 31.4194L42.2337 31.4109L42.2348 31.4197L42.2361 31.4194Z" fill="#E3B38A"/>
<path d="M45.7139 11.9993L45.704 12.0048L45.7142 12.0011L45.7139 11.9993Z" fill="#E3B38A"/>
<path d="M45.0154 11.4412L45.0065 11.4435L45.0154 11.4427V11.4412Z" fill="#E3B38A"/>
<path d="M27.6027 21.9776L27.6135 21.9711L27.609 21.9826L27.6027 21.9776Z" fill="#E3B38A"/>
<path d="M29.1475 14.693L29.1366 14.6971L29.1477 14.6947L29.1475 14.693Z" fill="#E3B38A"/>
<path d="M28.1255 17.1759L28.1236 17.1661L28.124 17.1762L28.1255 17.1759Z" fill="#E3B38A"/>
<path d="M29.0438 21.2355L29.0488 21.2237L29.0549 21.2294L29.0438 21.2355Z" fill="#E3B38A"/>
<path d="M32.2468 14.6451L32.2296 14.6479C32.2319 14.6459 32.2341 14.6427 32.2363 14.6424C32.2401 14.6422 32.243 14.6444 32.2468 14.6451Z" fill="#E3B38A"/>
<path d="M33.6689 18.0618L33.6662 18.0442C33.6682 18.0462 33.6717 18.0479 33.6719 18.0502C33.6724 18.0539 33.6709 18.0576 33.6701 18.0616L33.6689 18.0618Z" fill="#E3B38A"/>
<path d="M22.0935 47.6797C20.7227 47.6797 19.3132 47.8866 17.8648 48.3004C14.5025 53.5508 11.3213 57.9735 8.32108 61.5685C5.34676 65.1895 3.18713 66.9999 1.84222 66.9999C0.93699 66.9999 0.484375 66.4956 0.484375 65.4869C0.484375 64.5041 0.924058 63.185 1.80343 61.5297C2.68279 59.8745 3.83373 58.1675 5.25623 56.4087C6.7046 54.6759 8.46334 52.9947 10.5324 51.3653C12.6274 49.7617 14.7482 48.5591 16.8949 47.7573C19.5589 43.2053 21.8478 38.9119 23.7617 34.8772C25.6756 30.8424 26.6326 28.2431 26.6326 27.0793C26.6326 25.5533 26.0377 24.7903 24.848 24.7903C23.6841 24.7903 22.0935 25.5016 20.0762 26.9241C18.0588 28.3466 16.1061 30.0406 14.218 32.0063C12.33 33.9719 10.6876 36.0798 9.29097 38.33C7.9202 40.5801 7.23481 42.3906 7.23481 43.7614C7.23481 45.1321 7.89433 45.8175 9.21338 45.8175C10.61 45.8175 12.1748 44.9899 13.9077 43.3346C15.6664 41.6793 16.688 40.2698 16.9725 39.1059C17.0242 38.9248 17.1406 38.8343 17.3217 38.8343C17.5286 38.8343 17.632 38.9248 17.632 39.1059C17.632 40.4767 16.4294 42.1449 14.024 44.1105C11.6187 46.0503 9.57548 47.0202 7.89433 47.0202C6.54942 47.0202 5.87696 46.2055 5.87696 44.5761C5.87696 42.9208 6.63994 40.8517 8.1659 38.3688C9.71773 35.8859 11.5411 33.571 13.6361 31.4244C15.7569 29.2777 17.9683 27.4413 20.2701 25.9154C22.5979 24.3894 24.4859 23.6264 25.9343 23.6264C27.6672 23.6264 28.5336 24.7515 28.5336 27.0017C28.5336 28.3466 27.5766 30.9329 25.6627 34.7608C23.7488 38.5886 21.3823 42.7397 18.5631 47.2142C20.0374 46.8262 21.1883 46.6322 22.0159 46.6322C22.8694 46.6322 23.516 46.7615 23.9557 47.0202C24.4213 47.253 24.654 47.5633 24.654 47.9513C24.654 48.7789 24.3825 49.5419 23.8393 50.2402C23.322 50.9385 22.7143 51.2877 22.0159 51.2877C21.9125 51.2877 21.8607 51.2489 21.8607 51.1713C21.8607 50.9127 22.0418 50.6928 22.4039 50.5118C22.8953 50.0721 23.141 49.4902 23.141 48.766C23.141 48.0418 22.7918 47.6797 22.0935 47.6797ZM2.07499 64.3618C2.07499 64.9567 2.30777 65.2541 2.77332 65.2541C4.01477 65.2541 5.83817 63.7152 8.24349 60.6374C10.6747 57.5597 13.3257 53.6542 16.1966 48.9212C13.6878 49.9299 11.2954 51.5075 9.01941 53.6542C6.7434 55.8268 5.02346 57.8959 3.85959 59.8615C2.66986 61.8272 2.07499 63.3273 2.07499 64.3618Z" fill="black"/>
<path d="M42.3212 26.4585C42.3212 26.5102 42.2953 26.5749 42.2436 26.6525C42.2177 26.7042 41.8427 27.4284 41.1185 28.8251C40.3167 30.3251 38.2088 34.2435 34.7948 40.5801C38.6227 39.1576 42.0496 37.0368 45.0757 34.2176C48.1017 31.3726 49.6148 28.8768 49.6148 26.7301C49.6148 25.5662 49.0457 24.6093 47.9077 23.8592C46.7697 23.1092 45.0498 22.7341 42.7479 22.7341C40.4461 22.7341 37.9631 23.2256 35.2992 24.2084C32.6611 25.1653 30.3333 26.3163 28.316 27.6612C26.2986 29.0061 24.6175 30.3898 23.2725 31.8123C21.9018 33.2348 21.2164 34.3987 21.2164 35.3039C21.2164 36.3126 22.0311 36.8169 23.6605 36.8169C25.2641 36.8169 27.1004 36.2867 29.1695 35.2263C31.2644 34.14 33.1396 32.7046 34.7948 30.92C35.0793 30.5838 35.2604 30.4157 35.338 30.4157C35.519 30.4157 35.6095 30.5062 35.6095 30.6872C35.6095 30.739 35.519 30.92 35.338 31.2304C34.4845 32.5236 32.5835 34.0495 29.635 35.8083C26.7124 37.5411 24.2942 38.4076 22.3802 38.4076C20.4405 38.4076 19.4706 37.7998 19.4706 36.5842C19.4706 35.4979 20.2465 34.1013 21.7983 32.3942C23.3243 30.6614 25.2382 28.9802 27.5401 27.3508C29.8419 25.7214 32.5188 24.3248 35.5707 23.1609C38.6227 21.997 41.4289 21.4151 43.9894 21.4151C46.5758 21.4151 48.4767 21.8289 49.6923 22.6566C50.9079 23.4583 51.5157 24.5058 51.5157 25.799C51.5157 28.0491 50.0803 30.6096 47.2094 33.4805C44.3644 36.3514 40.9245 38.6533 36.8898 40.3861C39.502 40.412 41.6746 41.55 43.4075 43.8002C45.1403 46.0244 46.0197 48.6108 46.0456 51.5593C46.0456 51.9214 45.9809 52.1024 45.8516 52.1024C45.6447 52.1024 45.5024 51.8696 45.4248 51.4041C45.3472 50.9644 45.2567 50.5247 45.1533 50.085C45.0498 49.6454 44.7265 48.8694 44.1834 47.7573C43.6661 46.6452 43.0454 45.6623 42.3212 44.8088C41.6229 43.9553 40.6012 43.1794 39.2563 42.4811C37.9114 41.7828 36.3984 41.4336 34.7172 41.4336H34.2905C32.4283 44.8218 30.8635 47.628 29.5962 49.8523C29.441 50.1885 29.1565 50.4471 28.7427 50.6282C28.3289 50.8092 28.0056 50.8997 27.7728 50.8997C27.5659 50.8997 27.4625 50.8351 27.4625 50.7058L32.2343 42.0156C31.1998 42.2742 30.1394 42.4682 29.0531 42.5975C28.5875 42.5975 28.3548 42.5199 28.3548 42.3647C28.3548 42.0802 28.497 41.925 28.7815 41.8992C29.9712 41.8216 31.2644 41.6017 32.6611 41.2396L40.459 27.0405C40.5366 26.8335 40.7694 26.6654 41.1573 26.5361C41.5453 26.3809 41.8686 26.3033 42.1272 26.3033L42.3212 26.4585Z" fill="black"/>
</svg>
